<svg width="116" height="40" viewBox="0 0 116 40" fill="none" xmlns="http://www.w3.org/2000/svg">
<path d="M0 20C0 8.95431 8.95431 0 20 0H96C107.046 0 116 8.95431 116 20C116 31.0457 107.046 40 96 40H20C8.9543 40 0 31.0457 0 20Z" fill="#111111"/>
<path d="M25.284 25V16.432H26.82V23.704H30.396V25H25.284ZM34.3536 18.376C35.2256 18.376 35.9136 18.636 36.4176 19.156C36.9296 19.676 37.1856 20.4 37.1856 21.328V22.096H32.8896C32.9056 22.688 33.0696 23.148 33.3816 23.476C33.6936 23.796 34.1256 23.956 34.6776 23.956C35.0936 23.956 35.4696 23.916 35.8056 23.836C36.1416 23.748 36.4856 23.624 36.8376 23.464V24.676C36.5176 24.828 36.1856 24.94 35.8416 25.012C35.4976 25.084 35.0856 25.12 34.6056 25.12C33.9736 25.12 33.4096 25 32.9136 24.76C32.4256 24.512 32.0416 24.14 31.7616 23.644C31.4896 23.148 31.3536 22.532 31.3536 21.796C31.3536 20.684 31.6296 19.836 32.1816 19.252C32.7336 18.668 33.4576 18.376 34.3536 18.376ZM34.3536 19.492C33.9456 19.492 33.6136 19.624 33.3576 19.888C33.1096 20.144 32.9656 20.528 32.9256 21.04H35.7216C35.7136 20.592 35.5976 20.224 35.3736 19.936C35.1576 19.64 34.8176 19.492 34.3536 19.492ZM41.3023 18.376C42.1423 18.376 42.7783 18.56 43.2103 18.928C43.6503 19.296 43.8703 19.864 43.8703 20.632V25H42.8023L42.5023 24.1H42.4543C42.1743 24.452 41.8783 24.712 41.5663 24.88C41.2543 25.04 40.8303 25.12 40.2943 25.12C39.7103 25.12 39.2263 24.956 38.8423 24.628C38.4583 24.3 38.2663 23.792 38.2663 23.104C38.2663 22.432 38.5103 21.928 38.9983 21.592C39.4943 21.256 40.2423 21.068 41.2423 21.028L42.3703 20.992V20.668C42.3703 20.26 42.2703 19.968 42.0703 19.792C41.8703 19.608 41.5903 19.516 41.2303 19.516C40.9023 19.516 40.5863 19.564 40.2823 19.66C39.9863 19.756 39.6903 19.868 39.3943 19.996L38.9143 18.94C39.2343 18.772 39.5983 18.636 40.0063 18.532C40.4223 18.428 40.8543 18.376 41.3023 18.376ZM41.5783 21.952C40.9143 21.976 40.4543 22.092 40.1983 22.3C39.9423 22.5 39.8143 22.772 39.8143 23.116C39.8143 23.428 39.9023 23.652 40.0783 23.788C40.2623 23.916 40.5023 23.98 40.7983 23.98C41.2383 23.98 41.6103 23.856 41.9143 23.608C42.2183 23.352 42.3703 22.976 42.3703 22.48V21.928L41.5783 21.952ZM49.173 18.376C49.277 18.376 49.389 18.38 49.509 18.388C49.637 18.396 49.745 18.412 49.833 18.436L49.701 19.84C49.621 19.824 49.525 19.812 49.413 19.804C49.301 19.788 49.201 19.78 49.113 19.78C48.793 19.78 48.493 19.848 48.213 19.984C47.933 20.112 47.705 20.316 47.529 20.596C47.361 20.868 47.277 21.212 47.277 21.628V25H45.765V18.496H46.929L47.145 19.624H47.217C47.409 19.28 47.673 18.988 48.009 18.748C48.345 18.5 48.733 18.376 49.173 18.376ZM54.5184 18.376C55.2464 18.376 55.8144 18.564 56.2224 18.94C56.6384 19.316 56.8464 19.924 56.8464 20.764V25H55.3344V21.064C55.3344 20.088 54.9344 19.6 54.1344 19.6C53.5264 19.6 53.1104 19.792 52.8864 20.176C52.6624 20.56 52.5504 21.108 52.5504 21.82V25H51.0384V18.496H52.2024L52.4184 19.348H52.5024C52.7104 19.012 52.9944 18.768 53.3544 18.616C53.7224 18.456 54.1104 18.376 54.5184 18.376ZM69.3068 18.376C70.0428 18.376 70.5948 18.564 70.9628 18.94C71.3388 19.316 71.5268 19.924 71.5268 20.764V25H70.0148V21.052C70.0148 20.084 69.6468 19.6 68.9108 19.6C68.3828 19.6 68.0068 19.772 67.7828 20.116C67.5588 20.46 67.4468 20.96 67.4468 21.616V25H65.9348V21.052C65.9348 20.084 65.5628 19.6 64.8188 19.6C64.2668 19.6 63.8868 19.792 63.6788 20.176C63.4708 20.56 63.3668 21.108 63.3668 21.82V25H61.8548V18.496H63.0188L63.2348 19.348H63.3188C63.5108 19.012 63.7788 18.768 64.1228 18.616C64.4748 18.456 64.8388 18.376 65.2148 18.376C65.7028 18.376 66.1108 18.46 66.4388 18.628C66.7748 18.788 67.0308 19.04 67.2068 19.384H67.3268C67.5268 19.032 67.8068 18.776 68.1668 18.616C68.5268 18.456 68.9068 18.376 69.3068 18.376ZM79.2292 21.736C79.2292 22.816 78.9492 23.652 78.3892 24.244C77.8292 24.828 77.0692 25.12 76.1092 25.12C75.5172 25.12 74.9892 24.988 74.5252 24.724C74.0612 24.46 73.6972 24.076 73.4332 23.572C73.1692 23.068 73.0372 22.456 73.0372 21.736C73.0372 20.656 73.3132 19.828 73.8652 19.252C74.4252 18.668 75.1852 18.376 76.1452 18.376C76.7452 18.376 77.2772 18.508 77.7412 18.772C78.2052 19.028 78.5692 19.408 78.8332 19.912C79.0972 20.408 79.2292 21.016 79.2292 21.736ZM74.5852 21.736C74.5852 22.424 74.7052 22.956 74.9452 23.332C75.1932 23.708 75.5892 23.896 76.1332 23.896C76.6772 23.896 77.0692 23.708 77.3092 23.332C77.5572 22.956 77.6812 22.424 77.6812 21.736C77.6812 21.048 77.5572 20.52 77.3092 20.152C77.0692 19.784 76.6732 19.6 76.1212 19.6C75.5852 19.6 75.1932 19.784 74.9452 20.152C74.7052 20.52 74.5852 21.048 74.5852 21.736ZM84.2003 18.376C84.3043 18.376 84.4163 18.38 84.5363 18.388C84.6643 18.396 84.7723 18.412 84.8603 18.436L84.7283 19.84C84.6483 19.824 84.5523 19.812 84.4403 19.804C84.3283 19.788 84.2283 19.78 84.1403 19.78C83.8203 19.78 83.5203 19.848 83.2403 19.984C82.9603 20.112 82.7323 20.316 82.5563 20.596C82.3883 20.868 82.3043 21.212 82.3043 21.628V25H80.7923V18.496H81.9563L82.1723 19.624H82.2443C82.4363 19.28 82.7003 18.988 83.0363 18.748C83.3723 18.5 83.7603 18.376 84.2003 18.376ZM88.4474 18.376C89.3194 18.376 90.0074 18.636 90.5114 19.156C91.0234 19.676 91.2794 20.4 91.2794 21.328V22.096H86.9834C86.9994 22.688 87.1634 23.148 87.4754 23.476C87.7874 23.796 88.2194 23.956 88.7714 23.956C89.1874 23.956 89.5634 23.916 89.8994 23.836C90.2354 23.748 90.5794 23.624 90.9314 23.464V24.676C90.6114 24.828 90.2794 24.94 89.9354 25.012C89.5914 25.084 89.1794 25.12 88.6994 25.12C88.0674 25.12 87.5034 25 87.0074 24.76C86.5194 24.512 86.1354 24.14 85.8554 23.644C85.5834 23.148 85.4474 22.532 85.4474 21.796C85.4474 20.684 85.7234 19.836 86.2754 19.252C86.8274 18.668 87.5514 18.376 88.4474 18.376ZM88.4474 19.492C88.0394 19.492 87.7074 19.624 87.4514 19.888C87.2034 20.144 87.0594 20.528 87.0194 21.04H89.8154C89.8074 20.592 89.6914 20.224 89.4674 19.936C89.2514 19.64 88.9114 19.492 88.4474 19.492Z" fill="white"/>
</svg>
