<svg width="24" height="24" viewBox="0 0 24 24" fill="none" xmlns="http://www.w3.org/2000/svg">
<path fill-rule="evenodd" clip-rule="evenodd" d="M16.002 13C16.002 14.0609 15.5805 15.0783 14.8304 15.8284C14.0802 16.5786 13.0628 17 12.002 17C10.9411 17 9.92367 16.5786 9.17353 15.8284C8.42338 15.0783 8.00195 14.0609 8.00195 13C8.00195 11.9391 8.42338 10.9217 9.17353 10.1716C9.92367 9.42143 10.9411 9 12.002 9C13.0628 9 14.0802 9.42143 14.8304 10.1716C15.5805 10.9217 16.002 11.9391 16.002 13ZM14.002 13C14.002 13.5304 13.7912 14.0391 13.4162 14.4142C13.0411 14.7893 12.5324 15 12.002 15C11.4715 15 10.9628 14.7893 10.5877 14.4142C10.2127 14.0391 10.002 13.5304 10.002 13C10.002 12.4696 10.2127 11.9609 10.5877 11.5858C10.9628 11.2107 11.4715 11 12.002 11C12.5324 11 13.0411 11.2107 13.4162 11.5858C13.7912 11.9609 14.002 12.4696 14.002 13Z" fill="#484848"/>
<path fill-rule="evenodd" clip-rule="evenodd" d="M9.443 4L7.586 7H3V20H21V7H16.414L14.557 4H9.443ZM10.557 6H13.443L15.3 9H19V18H5V9H8.7L10.557 6V6Z" fill="#484848"/>
</svg>
