<svg width="176" height="40" viewBox="0 0 176 40" fill="none" xmlns="http://www.w3.org/2000/svg">
<path d="M0 20C0 8.95431 8.9543 0 20 0H156C167.046 0 176 8.95431 176 20C176 31.0457 167.046 40 156 40H20C8.95431 40 0 31.0457 0 20Z" fill="#F5F5F5"/>
<path fill-rule="evenodd" clip-rule="evenodd" d="M37.7467 26.1766C36.9482 27.7737 36.2151 28 36 28C35.7849 28 35.0518 27.7737 34.2533 26.1766C33.9468 25.5635 33.6788 24.8293 33.4702 24H38.5298C38.3212 24.8293 38.0532 25.5635 37.7467 26.1766ZM38.8885 22H33.1115C33.0367 21.336 32.9995 20.6682 33 20C33 19.3051 33.0392 18.6359 33.1115 18H38.8885C38.9608 18.6359 39 19.3051 39 20C39 20.6949 38.9608 21.3641 38.8885 22ZM40.584 24C40.3182 25.2166 39.9348 26.307 39.4627 27.2138C40.9145 26.5145 42.1225 25.3947 42.9297 24H40.584ZM43.748 22H40.9C40.9656 21.3538 41 20.6849 41 20C41 19.3151 40.9656 18.6462 40.9 18H43.748C43.9158 18.6534 44.0005 19.3254 44 20C44.0005 20.6746 43.9158 21.3466 43.748 22ZM42.9297 16C42.1225 14.6053 40.9145 13.4856 39.4627 12.7862C39.9348 13.693 40.3182 14.7834 40.584 16H42.9297ZM38.5298 16C38.3212 15.1707 38.0532 14.4365 37.7467 13.8234C36.9482 12.2264 36.2151 12 36 12C35.7849 12 35.0518 12.2263 34.2533 13.8234C33.9468 14.4364 33.6788 15.1707 33.4702 16H38.5298ZM31.416 16C31.6818 14.7834 32.0651 13.693 32.5373 12.7862C31.0855 13.4856 29.8775 14.6053 29.0703 16H31.416ZM28.252 18C28.0842 18.6534 27.9995 19.3254 28 20C28 20.6906 28.0875 21.3608 28.252 22H31.1C31.033 21.3354 30.9996 20.6679 31 20C31 19.3151 31.0344 18.6462 31.1 18H28.252ZM31.416 24H29.0704C29.8776 25.3947 31.0856 26.5145 32.5374 27.2138C32.0651 26.307 31.6818 25.2166 31.4161 24H31.416ZM46 20C46 14.4771 41.5228 10 36 10C30.4771 10 26 14.4771 26 20C26 25.5228 30.4771 30 36 30C41.5228 30 46 25.5228 46 20Z" fill="#484848"/>
<path d="M63.182 17.608C62.398 17.608 61.79 17.888 61.358 18.448C60.934 19.008 60.722 19.768 60.722 20.728C60.722 21.696 60.922 22.456 61.322 23.008C61.722 23.552 62.338 23.824 63.17 23.824C63.53 23.824 63.882 23.788 64.226 23.716C64.57 23.636 64.93 23.532 65.306 23.404V24.712C64.954 24.856 64.598 24.96 64.238 25.024C63.886 25.088 63.478 25.12 63.014 25.12C62.134 25.12 61.406 24.94 60.83 24.58C60.254 24.212 59.826 23.7 59.546 23.044C59.266 22.38 59.126 21.604 59.126 20.716C59.126 19.852 59.282 19.092 59.594 18.436C59.906 17.772 60.362 17.252 60.962 16.876C61.57 16.5 62.31 16.312 63.182 16.312C63.614 16.312 64.038 16.364 64.454 16.468C64.878 16.564 65.274 16.7 65.642 16.876L65.114 18.136C64.81 18 64.494 17.88 64.166 17.776C63.846 17.664 63.518 17.608 63.182 17.608ZM68.5192 18.052C68.5192 18.308 68.5072 18.56 68.4832 18.808C68.4672 19.048 68.4512 19.228 68.4352 19.348H68.5312C68.7392 19.02 69.0112 18.776 69.3472 18.616C69.6832 18.456 70.0552 18.376 70.4632 18.376C71.1992 18.376 71.7752 18.564 72.1912 18.94C72.6072 19.316 72.8152 19.924 72.8152 20.764V25H71.3032V21.064C71.3032 20.088 70.9032 19.6 70.1032 19.6C69.4952 19.6 69.0792 19.792 68.8552 20.176C68.6312 20.56 68.5192 21.108 68.5192 21.82V25H67.0072V15.88H68.5192V18.052ZM77.2984 18.376C78.1384 18.376 78.7744 18.56 79.2064 18.928C79.6464 19.296 79.8664 19.864 79.8664 20.632V25H78.7984L78.4984 24.1H78.4504C78.1704 24.452 77.8744 24.712 77.5624 24.88C77.2504 25.04 76.8264 25.12 76.2904 25.12C75.7064 25.12 75.2224 24.956 74.8384 24.628C74.4544 24.3 74.2624 23.792 74.2624 23.104C74.2624 22.432 74.5064 21.928 74.9944 21.592C75.4904 21.256 76.2384 21.068 77.2384 21.028L78.3664 20.992V20.668C78.3664 20.26 78.2664 19.968 78.0664 19.792C77.8664 19.608 77.5864 19.516 77.2264 19.516C76.8984 19.516 76.5824 19.564 76.2784 19.66C75.9824 19.756 75.6864 19.868 75.3904 19.996L74.9104 18.94C75.2304 18.772 75.5944 18.636 76.0024 18.532C76.4184 18.428 76.8504 18.376 77.2984 18.376ZM77.5744 21.952C76.9104 21.976 76.4504 22.092 76.1944 22.3C75.9384 22.5 75.8104 22.772 75.8104 23.116C75.8104 23.428 75.8984 23.652 76.0744 23.788C76.2584 23.916 76.4984 23.98 76.7944 23.98C77.2344 23.98 77.6064 23.856 77.9104 23.608C78.2144 23.352 78.3664 22.976 78.3664 22.48V21.928L77.5744 21.952ZM85.2411 18.376C85.9691 18.376 86.5371 18.564 86.9451 18.94C87.3611 19.316 87.5691 19.924 87.5691 20.764V25H86.0571V21.064C86.0571 20.088 85.6571 19.6 84.8571 19.6C84.2491 19.6 83.8331 19.792 83.6091 20.176C83.3851 20.56 83.2731 21.108 83.2731 21.82V25H81.7611V18.496H82.9251L83.1411 19.348H83.2251C83.4331 19.012 83.7171 18.768 84.0771 18.616C84.4451 18.456 84.8331 18.376 85.2411 18.376ZM91.6443 18.376C92.4683 18.376 93.1123 18.696 93.5763 19.336H93.6363L93.7803 18.496H95.0403V25.048C95.0403 25.976 94.7763 26.68 94.2483 27.16C93.7283 27.64 92.9483 27.88 91.9083 27.88C91.4443 27.88 91.0163 27.848 90.6243 27.784C90.2323 27.728 89.8603 27.628 89.5083 27.484V26.236C90.2523 26.572 91.0843 26.74 92.0043 26.74C92.5003 26.74 92.8763 26.6 93.1323 26.32C93.3963 26.048 93.5283 25.648 93.5283 25.12V24.952C93.5283 24.832 93.5323 24.692 93.5403 24.532C93.5483 24.372 93.5603 24.244 93.5763 24.148H93.5283C93.3043 24.484 93.0283 24.732 92.7003 24.892C92.3803 25.044 92.0163 25.12 91.6083 25.12C90.8163 25.12 90.1963 24.824 89.7483 24.232C89.3003 23.64 89.0763 22.816 89.0763 21.76C89.0763 20.704 89.3003 19.876 89.7483 19.276C90.2043 18.676 90.8363 18.376 91.6443 18.376ZM92.0403 19.612C91.0963 19.612 90.6243 20.336 90.6243 21.784C90.6243 23.208 91.1043 23.92 92.0643 23.92C92.5923 23.92 92.9803 23.776 93.2283 23.488C93.4843 23.192 93.6123 22.696 93.6123 22V21.772C93.6123 21.004 93.4843 20.452 93.2283 20.116C92.9803 19.78 92.5843 19.612 92.0403 19.612ZM99.588 18.376C100.46 18.376 101.148 18.636 101.652 19.156C102.164 19.676 102.42 20.4 102.42 21.328V22.096H98.124C98.14 22.688 98.304 23.148 98.616 23.476C98.928 23.796 99.36 23.956 99.912 23.956C100.328 23.956 100.704 23.916 101.04 23.836C101.376 23.748 101.72 23.624 102.072 23.464V24.676C101.752 24.828 101.42 24.94 101.076 25.012C100.732 25.084 100.32 25.12 99.84 25.12C99.208 25.12 98.644 25 98.148 24.76C97.66 24.512 97.276 24.14 96.996 23.644C96.724 23.148 96.588 22.532 96.588 21.796C96.588 20.684 96.864 19.836 97.416 19.252C97.968 18.668 98.692 18.376 99.588 18.376ZM99.588 19.492C99.18 19.492 98.848 19.624 98.592 19.888C98.344 20.144 98.2 20.528 98.16 21.04H100.956C100.948 20.592 100.832 20.224 100.608 19.936C100.392 19.64 100.052 19.492 99.588 19.492ZM109.69 25.12C108.754 25.12 108.018 24.852 107.482 24.316C106.946 23.78 106.678 22.936 106.678 21.784C106.678 20.984 106.81 20.336 107.074 19.84C107.346 19.336 107.718 18.968 108.19 18.736C108.662 18.496 109.202 18.376 109.81 18.376C110.218 18.376 110.582 18.416 110.902 18.496C111.222 18.576 111.494 18.672 111.718 18.784L111.274 19.972C111.026 19.876 110.778 19.796 110.53 19.732C110.282 19.66 110.042 19.624 109.81 19.624C108.754 19.624 108.226 20.34 108.226 21.772C108.226 22.468 108.358 22.992 108.622 23.344C108.894 23.696 109.282 23.872 109.786 23.872C110.146 23.872 110.466 23.828 110.746 23.74C111.026 23.652 111.294 23.532 111.55 23.38V24.688C111.302 24.832 111.034 24.94 110.746 25.012C110.466 25.084 110.114 25.12 109.69 25.12ZM118.882 21.736C118.882 22.816 118.602 23.652 118.042 24.244C117.482 24.828 116.722 25.12 115.762 25.12C115.17 25.12 114.642 24.988 114.178 24.724C113.714 24.46 113.35 24.076 113.086 23.572C112.822 23.068 112.69 22.456 112.69 21.736C112.69 20.656 112.966 19.828 113.518 19.252C114.078 18.668 114.838 18.376 115.798 18.376C116.398 18.376 116.93 18.508 117.394 18.772C117.858 19.028 118.222 19.408 118.486 19.912C118.75 20.408 118.882 21.016 118.882 21.736ZM114.238 21.736C114.238 22.424 114.358 22.956 114.598 23.332C114.846 23.708 115.242 23.896 115.786 23.896C116.33 23.896 116.722 23.708 116.962 23.332C117.21 22.956 117.334 22.424 117.334 21.736C117.334 21.048 117.21 20.52 116.962 20.152C116.722 19.784 116.326 19.6 115.774 19.6C115.238 19.6 114.846 19.784 114.598 20.152C114.358 20.52 114.238 21.048 114.238 21.736ZM126.217 18.496V25H125.029L124.825 24.16H124.753C124.537 24.496 124.245 24.74 123.877 24.892C123.517 25.044 123.133 25.12 122.725 25.12C121.997 25.12 121.425 24.932 121.009 24.556C120.601 24.18 120.397 23.576 120.397 22.744V18.496H121.909V22.444C121.909 23.412 122.309 23.896 123.109 23.896C123.717 23.896 124.133 23.708 124.357 23.332C124.589 22.948 124.705 22.396 124.705 21.676V18.496H126.217ZM131.624 18.376C132.352 18.376 132.92 18.564 133.328 18.94C133.744 19.316 133.952 19.924 133.952 20.764V25H132.44V21.064C132.44 20.088 132.04 19.6 131.24 19.6C130.632 19.6 130.216 19.792 129.992 20.176C129.768 20.56 129.656 21.108 129.656 21.82V25H128.144V18.496H129.308L129.524 19.348H129.608C129.816 19.012 130.1 18.768 130.46 18.616C130.828 18.456 131.216 18.376 131.624 18.376ZM138.363 23.908C138.547 23.908 138.727 23.892 138.903 23.86C139.087 23.82 139.255 23.776 139.407 23.728V24.856C139.247 24.928 139.039 24.988 138.783 25.036C138.527 25.092 138.259 25.12 137.979 25.12C137.611 25.12 137.275 25.06 136.971 24.94C136.667 24.812 136.427 24.596 136.251 24.292C136.075 23.988 135.987 23.564 135.987 23.02V19.636H135.111V18.976L136.071 18.448L136.551 17.068H137.499V18.496H139.347V19.636H137.499V23.008C137.499 23.312 137.579 23.54 137.739 23.692C137.899 23.836 138.107 23.908 138.363 23.908ZM144.126 18.376C144.23 18.376 144.342 18.38 144.462 18.388C144.59 18.396 144.698 18.412 144.786 18.436L144.654 19.84C144.574 19.824 144.478 19.812 144.366 19.804C144.254 19.788 144.154 19.78 144.066 19.78C143.746 19.78 143.446 19.848 143.166 19.984C142.886 20.112 142.658 20.316 142.482 20.596C142.314 20.868 142.23 21.212 142.23 21.628V25H140.718V18.496H141.882L142.098 19.624H142.17C142.362 19.28 142.626 18.988 142.962 18.748C143.298 18.5 143.686 18.376 144.126 18.376ZM145.02 18.496H146.664L147.96 22.168C148.048 22.4 148.12 22.628 148.176 22.852C148.232 23.076 148.272 23.304 148.296 23.536H148.344C148.376 23.336 148.424 23.116 148.488 22.876C148.552 22.636 148.624 22.4 148.704 22.168L149.952 18.496H151.584L148.812 25.864C148.564 26.512 148.224 27.008 147.792 27.352C147.368 27.704 146.844 27.88 146.22 27.88C146.02 27.88 145.848 27.868 145.704 27.844C145.56 27.828 145.432 27.808 145.32 27.784V26.584C145.408 26.6 145.512 26.616 145.632 26.632C145.76 26.648 145.892 26.656 146.028 26.656C146.404 26.656 146.7 26.544 146.916 26.32C147.14 26.104 147.312 25.832 147.432 25.504L147.624 24.976L145.02 18.496Z" fill="#484848"/>
<path d="M20 0.5H156V-0.5H20V0.5ZM156 39.5H20V40.5H156V39.5ZM20 39.5C9.23045 39.5 0.5 30.7696 0.5 20H-0.5C-0.5 31.3218 8.67816 40.5 20 40.5V39.5ZM175.5 20C175.5 30.7696 166.77 39.5 156 39.5V40.5C167.322 40.5 176.5 31.3218 176.5 20H175.5ZM156 0.5C166.77 0.5 175.5 9.23045 175.5 20H176.5C176.5 8.67816 167.322 -0.5 156 -0.5V0.5ZM20 -0.5C8.67816 -0.5 -0.5 8.67816 -0.5 20H0.5C0.5 9.23045 9.23045 0.5 20 0.5V-0.5Z" fill="#DFDFDF"/>
</svg>
