<svg width="100" height="40" viewBox="0 0 100 40" fill="none" xmlns="http://www.w3.org/2000/svg">
<path fill-rule="evenodd" clip-rule="evenodd" d="M99.986 40H0V0H100V40H99.986Z" fill="#0058AB"/>
<path fill-rule="evenodd" clip-rule="evenodd" d="M2 20C2 29.833 22.116 38 50.007 38C77.898 38 98 29.833 98 20C98 10.167 77.884 2 50.007 2C22.131 2 2 10.167 2 20Z" fill="#FBD914"/>
<path d="M46.448 26.0052C46.763 26.4522 47.108 26.8722 47.508 27.2502H36.688C36.688 26.8302 36.272 25.9772 35.813 25.3052C34.8319 23.8564 33.8525 22.4064 32.875 20.9552V26.0052C32.875 26.4252 32.875 26.8302 33.09 27.2502H24.075C24.29 26.8302 24.29 26.4242 24.29 26.0052V14.0002C24.29 13.5802 24.29 13.1742 24.075 12.7552H33.09C32.875 13.1752 32.875 13.5802 32.875 14.0002V19.2462C32.875 19.2462 35.755 15.5812 36.415 14.7272C36.917 14.0842 37.533 13.1742 37.533 12.7552H46.935C46.29 13.1752 45.574 13.9302 44.986 14.6292L41.546 18.7292C41.546 18.7292 45.875 25.1792 46.448 26.0042V26.0052ZM49.286 14.0002V26.0042C49.286 26.4242 49.286 26.8292 49.071 27.2492H66.471V23.2192C66.041 23.4292 65.625 23.4292 65.195 23.4292H57.871V21.5272H64.908V18.4772H57.871V16.5602H65.195C65.625 16.5602 66.041 16.5602 66.471 16.7562V12.7412H49.071C49.286 13.1742 49.286 13.5812 49.286 14.0002ZM90.578 26.0042C90.722 26.4652 90.965 26.8852 91.281 27.2492H81.85C81.893 26.8292 81.735 26.4232 81.563 26.0042C81.563 26.0042 81.42 25.6682 81.219 25.1782L81.133 24.9682H75.701L75.615 25.1922C75.615 25.1922 75.457 25.5982 75.314 26.0182C75.171 26.4382 75.013 26.8432 75.07 27.2632H67.632C67.9356 26.8962 68.1643 26.4732 68.305 26.0182L72.763 14.0142C72.92 13.5942 73.078 13.1882 73.021 12.7692H85.591C85.476 13.1892 85.705 13.5942 85.863 14.0142C86.235 14.9242 90.263 25.1922 90.578 26.0042ZM79.943 21.9042L78.625 18.5472C78.5078 18.2368 78.4119 17.9187 78.338 17.5952C78.2807 17.9196 78.1943 18.2382 78.08 18.5472C78.037 18.6872 77.478 20.1562 76.833 21.9042H79.943ZM19.803 12.7542H10C10.215 13.1742 10.215 13.5802 10.215 14.0002V26.0042C10.215 26.4242 10.215 26.8292 10 27.2492H19.804C19.589 26.8292 19.589 26.4232 19.589 26.0042V14.0002C19.589 13.5802 19.589 13.1742 19.804 12.7552L19.803 12.7542ZM87.568 13.9022C87.525 12.8812 88.342 12.0272 89.388 11.9992H89.518C90.578 11.9852 91.452 12.7972 91.467 13.8322V13.9022C91.495 14.9522 90.65 15.8322 89.561 15.8612C88.486 15.8892 87.583 15.0632 87.554 14.0002C87.568 13.9722 87.568 13.9302 87.568 13.9022ZM87.955 13.9022C87.955 14.7422 88.658 15.4272 89.518 15.4272C90.378 15.4272 91.08 14.7412 91.08 13.9022C91.08 13.0622 90.378 12.3772 89.518 12.3772C88.686 12.3492 87.984 12.9792 87.955 13.7902V13.9022ZM89.131 15.0352H88.787V12.7412H89.661C89.8557 12.7438 90.0415 12.8231 90.1782 12.9618C90.3148 13.1005 90.3913 13.2875 90.391 13.4822C90.391 13.7622 90.234 14.0142 89.976 14.1542L90.478 15.0352H90.091L89.632 14.2242H89.131V15.0352ZM89.131 13.9022H89.604C89.833 13.9162 90.034 13.7482 90.034 13.5242C90.034 13.3002 89.876 13.1042 89.647 13.1042H89.131V13.9022Z" fill="#0058A3"/>
</svg>
