<svg width="16" height="16" viewBox="0 0 16 16" fill="none" xmlns="http://www.w3.org/2000/svg">
<path fill-rule="evenodd" clip-rule="evenodd" d="M9.98004 11.395C8.69753 12.322 7.11289 12.7319 5.54175 12.543C3.9706 12.3541 2.52827 11.5803 1.50202 10.3758C0.475775 9.17119 -0.059064 7.62424 0.00403289 6.04305C0.0671298 4.46185 0.723532 2.96244 1.8425 1.84347C2.96146 0.724509 4.46087 0.0681063 6.04207 0.00500946C7.62327 -0.0580874 9.17021 0.476752 10.3748 1.503C11.5793 2.52924 12.3531 3.97158 12.542 5.54272C12.7309 7.11387 12.321 8.69851 11.394 9.98102L15.996 14.582L14.582 15.996L9.98004 11.395ZM10.587 6.29402C10.5957 6.86336 10.4911 7.42875 10.2792 7.95728C10.0674 8.4858 9.75249 8.96691 9.35294 9.37261C8.95339 9.7783 8.47714 10.1005 7.95191 10.3204C7.42668 10.5403 6.86295 10.6535 6.29354 10.6535C5.72413 10.6535 5.16041 10.5403 4.63518 10.3204C4.10995 10.1005 3.6337 9.7783 3.23415 9.37261C2.8346 8.96691 2.51973 8.4858 2.30786 7.95728C2.09599 7.42875 1.99135 6.86336 2.00004 6.29402C2.01725 5.16666 2.47717 4.0913 3.28048 3.30015C4.0838 2.509 5.16605 2.06555 6.29354 2.06555C7.42103 2.06555 8.50329 2.509 9.3066 3.30015C10.1099 4.0913 10.5698 5.16666 10.587 6.29402Z" fill="#111111"/>
</svg>
