<svg width="24" height="24" viewBox="0 0 24 24" fill="none" xmlns="http://www.w3.org/2000/svg">
<path fill-rule="evenodd" clip-rule="evenodd" d="M10.9993 4H10.4372L10.145 4.4802L6.78799 9.9972H1.71899L2.02969 11.2397L3.65089 17.7248C3.98489 19.0603 5.18479 19.9972 6.56139 19.9972H17.4383C18.8149 19.9972 20.0148 19.0603 20.3487 17.7248L21.97 11.2397L22.2806 9.9972H17.2111L13.8537 4.4802L13.5617 4H10.9993ZM14.87 9.9972L12.4375 6H11.5614L9.12909 9.9972H14.87ZM5.59129 17.2397L4.28069 11.9972H19.7191L18.4085 17.2397C18.3544 17.4561 18.2296 17.6481 18.0538 17.7854C17.878 17.9226 17.6614 17.9972 17.4384 17.9972H6.56139C6.3384 17.9972 6.12181 17.9226 5.94606 17.7853C5.77031 17.6481 5.64547 17.456 5.59139 17.2397H5.59129Z" fill="#111111"/>
</svg>
