<svg width="24" height="24" viewBox="0 0 24 24" fill="none" xmlns="http://www.w3.org/2000/svg">
<path fill-rule="evenodd" clip-rule="evenodd" d="M1 4H16V7H19.0246L23.0039 12.6848V18H20.3472C19.9254 19.3056 18.6999 20.25 17.2539 20.25C15.8079 20.25 14.5824 19.3056 14.1607 18H10.2563C9.8346 19.3056 8.6091 20.25 7.1631 20.25C5.7171 20.25 4.4916 19.3056 4.0698 18H1V4ZM4.0698 16C4.4916 14.6944 5.7171 13.75 7.1631 13.75C8.6091 13.75 9.8346 14.6944 10.2563 16H14V6H3V16H4.0698ZM16 14.0007C16.3972 13.8347 16.8234 13.7494 17.2539 13.75C18.6999 13.75 19.9254 14.6944 20.3472 16H21.0039V13.3152L17.9833 9H16V14.0007ZM7.163 15.75C6.4727 15.75 5.913 16.3096 5.913 17C5.913 17.6904 6.4727 18.25 7.163 18.25C7.8534 18.25 8.413 17.6904 8.413 17C8.413 16.3096 7.8534 15.75 7.163 15.75ZM17.2539 15.75C16.5635 15.75 16.0039 16.3096 16.0039 17C16.0039 17.6904 16.5635 18.25 17.2539 18.25C17.9443 18.25 18.5039 17.6904 18.5039 17C18.5039 16.3096 17.9443 15.75 17.2539 15.75Z" fill="#111111"/>
</svg>
