<svg width="24" height="24" viewBox="0 0 24 24" fill="none" xmlns="http://www.w3.org/2000/svg">
<path fill-rule="evenodd" clip-rule="evenodd" d="M10.6724 6.46779C10.9458 6.18659 11.3528 5.99709 12.0217 5.99709C12.4188 5.99709 12.7267 6.08089 12.9746 6.21959C13.2156 6.35439 13.4125 6.55069 13.568 6.83889L13.5713 6.84489C13.7107 7.09899 13.8083 7.46339 13.8083 7.98519C13.8083 8.77079 13.6037 9.23029 13.3287 9.51299L13.3239 9.51799C13.048 9.80559 12.6449 9.99439 11.9899 9.99439C11.6042 9.99439 11.2937 9.91239 11.0339 9.77029C10.7951 9.63589 10.5997 9.44099 10.4451 9.15559C10.2997 8.88059 10.2032 8.50359 10.2032 7.98519C10.2032 7.19499 10.4067 6.74099 10.6724 6.46779ZM12.0217 3.99609C10.9383 3.99609 9.9677 4.32229 9.2379 5.07269C8.5003 5.83099 8.2021 6.85369 8.2021 7.98519C8.2021 8.75079 8.3452 9.46819 8.6794 10.0972L8.6825 10.103C9.0074 10.705 9.4675 11.187 10.0602 11.5184L10.0664 11.5219C10.6538 11.8449 11.3032 11.9955 11.9899 11.9955C13.0717 11.9955 14.0383 11.6622 14.7654 10.9059C15.506 10.1432 15.8094 9.11989 15.8094 7.98519C15.8094 7.22229 15.6673 6.50679 15.3274 5.88559C15.0027 5.28499 14.543 4.80409 13.9514 4.47309C13.3656 4.14549 12.7126 3.99609 12.0217 3.99609ZM6.4691 16.8582C6.7674 16.2779 7.1919 15.8309 7.7591 15.501C8.3173 15.1819 9.0425 14.9961 9.98 14.9961H14.02C14.9575 14.9961 15.6826 15.1819 16.2409 15.501C16.8081 15.8309 17.2326 16.2779 17.5309 16.8582C17.834 17.4478 18 18.1518 18 18.9961V19.9961H20V18.9961C20 17.8839 19.7795 16.8577 19.3096 15.9438C18.8424 15.0341 18.1229 14.2784 17.2374 13.7669C16.3095 13.2354 15.2217 12.9961 14.02 12.9961H9.98C8.8655 12.9961 7.7317 13.2081 6.7575 13.7698C5.8593 14.2913 5.1647 15.0213 4.6904 15.9438C4.2205 16.8577 4 17.8839 4 18.9961V19.9961H6V18.9961C6 18.1518 6.166 17.4478 6.4691 16.8582Z" fill="#111111"/>
</svg>
