<svg width="34" height="34" viewBox="0 0 34 34" fill="none" xmlns="http://www.w3.org/2000/svg">
<circle cx="17" cy="17" r="16.5" fill="#F5F5F5" stroke="#DFDFDF"/>
<path d="M17 7.04004C11.5 7.04004 7 11.53 7 17.06C7 22.06 10.66 26.21 15.44 26.96V19.96H12.9V17.06H15.44V14.85C15.44 12.34 16.93 10.96 19.22 10.96C20.31 10.96 21.45 11.15 21.45 11.15V13.62H20.19C18.95 13.62 18.56 14.39 18.56 15.18V17.06H21.34L20.89 19.96H18.56V26.96C20.9164 26.5879 23.0622 25.3856 24.6099 23.5701C26.1576 21.7546 27.0054 19.4457 27 17.06C27 11.53 22.5 7.04004 17 7.04004Z" fill="#484848"/>
</svg>
