<svg width="1440" height="84" viewBox="0 0 1440 84" fill="none" xmlns="http://www.w3.org/2000/svg">
<g clip-path="url(#clip0_1406_3231)">
<rect width="1440" height="84" fill="#F5F5F5"/>
<path d="M88.992 47.12C88.352 47.12 87.764 47.012 87.228 46.796C86.692 46.58 86.224 46.276 85.824 45.884C85.432 45.484 85.128 45.016 84.912 44.48C84.696 43.944 84.588 43.356 84.588 42.716C84.588 42.076 84.696 41.488 84.912 40.952C85.128 40.416 85.432 39.952 85.824 39.56C86.224 39.16 86.692 38.852 87.228 38.636C87.764 38.42 88.352 38.312 88.992 38.312C89.6 38.312 90.168 38.42 90.696 38.636C91.232 38.852 91.7 39.16 92.1 39.56C92.508 39.952 92.824 40.416 93.048 40.952C93.28 41.488 93.396 42.076 93.396 42.716C93.396 43.356 93.288 43.944 93.072 44.48C92.856 45.016 92.548 45.484 92.148 45.884C91.756 46.276 91.292 46.58 90.756 46.796C90.22 47.012 89.632 47.12 88.992 47.12ZM88.992 46.484C89.504 46.484 89.984 46.392 90.432 46.208C90.88 46.024 91.276 45.764 91.62 45.428C91.964 45.084 92.232 44.684 92.424 44.228C92.616 43.772 92.712 43.268 92.712 42.716C92.712 42.196 92.62 41.708 92.436 41.252C92.252 40.796 91.992 40.396 91.656 40.052C91.328 39.708 90.936 39.44 90.48 39.248C90.032 39.048 89.536 38.948 88.992 38.948C88.272 38.948 87.628 39.112 87.06 39.44C86.5 39.76 86.06 40.204 85.74 40.772C85.42 41.332 85.26 41.98 85.26 42.716C85.26 43.236 85.352 43.724 85.536 44.18C85.72 44.636 85.976 45.036 86.304 45.38C86.64 45.724 87.036 45.996 87.492 46.196C87.948 46.388 88.448 46.484 88.992 46.484ZM89.172 45.404C88.38 45.404 87.788 45.16 87.396 44.672C87.004 44.176 86.808 43.524 86.808 42.716C86.808 42.196 86.9 41.736 87.084 41.336C87.268 40.928 87.54 40.612 87.9 40.388C88.26 40.156 88.7 40.04 89.22 40.04C89.74 40.04 90.232 40.16 90.696 40.4L90.348 41.132C89.948 40.924 89.576 40.82 89.232 40.82C88.76 40.82 88.392 40.988 88.128 41.324C87.872 41.66 87.744 42.124 87.744 42.716C87.744 43.324 87.856 43.796 88.08 44.132C88.312 44.46 88.692 44.624 89.22 44.624C89.404 44.624 89.608 44.6 89.832 44.552C90.064 44.496 90.28 44.428 90.48 44.348V45.116C90.288 45.196 90.092 45.264 89.892 45.32C89.692 45.376 89.452 45.404 89.172 45.404ZM100.678 47H97.5816V46.376L98.5896 46.148V39.296L97.5816 39.056V38.432H100.678V39.056L99.6696 39.296V46.148L100.678 46.376V47ZM105.284 40.448C106.052 40.448 106.632 40.636 107.024 41.012C107.416 41.38 107.612 41.98 107.612 42.812V47H106.568V42.884C106.568 41.852 106.088 41.336 105.128 41.336C104.416 41.336 103.924 41.536 103.652 41.936C103.38 42.336 103.244 42.912 103.244 43.664V47H102.188V40.568H103.04L103.196 41.444H103.256C103.464 41.108 103.752 40.86 104.12 40.7C104.488 40.532 104.876 40.448 105.284 40.448ZM111.754 46.256C111.914 46.256 112.078 46.244 112.246 46.22C112.414 46.188 112.55 46.156 112.654 46.124V46.928C112.542 46.984 112.382 47.028 112.174 47.06C111.966 47.1 111.766 47.12 111.574 47.12C111.238 47.12 110.926 47.064 110.638 46.952C110.358 46.832 110.13 46.628 109.954 46.34C109.778 46.052 109.69 45.648 109.69 45.128V41.384H108.778V40.88L109.702 40.46L110.122 39.092H110.746V40.568H112.606V41.384H110.746V45.104C110.746 45.496 110.838 45.788 111.022 45.98C111.214 46.164 111.458 46.256 111.754 46.256ZM116.426 40.448C116.978 40.448 117.45 40.568 117.842 40.808C118.242 41.048 118.546 41.388 118.754 41.828C118.97 42.26 119.078 42.768 119.078 43.352V43.988H114.674C114.69 44.716 114.874 45.272 115.226 45.656C115.586 46.032 116.086 46.22 116.726 46.22C117.134 46.22 117.494 46.184 117.806 46.112C118.126 46.032 118.454 45.92 118.79 45.776V46.7C118.462 46.844 118.138 46.948 117.818 47.012C117.498 47.084 117.118 47.12 116.678 47.12C116.07 47.12 115.53 46.996 115.058 46.748C114.594 46.5 114.23 46.132 113.966 45.644C113.71 45.148 113.582 44.544 113.582 43.832C113.582 43.128 113.698 42.524 113.93 42.02C114.17 41.516 114.502 41.128 114.926 40.856C115.358 40.584 115.858 40.448 116.426 40.448ZM116.414 41.312C115.91 41.312 115.51 41.476 115.214 41.804C114.926 42.124 114.754 42.572 114.698 43.148H117.974C117.966 42.604 117.838 42.164 117.59 41.828C117.342 41.484 116.95 41.312 116.414 41.312ZM123.715 40.448C123.835 40.448 123.963 40.456 124.099 40.472C124.243 40.48 124.367 40.496 124.471 40.52L124.339 41.492C124.235 41.468 124.119 41.448 123.991 41.432C123.871 41.416 123.755 41.408 123.643 41.408C123.315 41.408 123.007 41.5 122.719 41.684C122.431 41.86 122.199 42.112 122.023 42.44C121.855 42.76 121.771 43.136 121.771 43.568V47H120.715V40.568H121.579L121.699 41.744H121.747C121.955 41.392 122.223 41.088 122.551 40.832C122.879 40.576 123.267 40.448 123.715 40.448ZM131.346 47H128.25V46.376L129.258 46.148V39.296L128.25 39.056V38.432H131.346V39.056L130.338 39.296V46.148L131.346 46.376V47ZM139.264 47H137.992L134.956 42.908L134.08 43.676V47H133V38.432H134.08V42.656C134.32 42.384 134.564 42.112 134.812 41.84C135.06 41.568 135.308 41.296 135.556 41.024L137.872 38.432H139.132L135.736 42.164L139.264 47ZM145.218 47H140.43V38.432H145.218V39.38H141.51V42.056H145.002V42.992H141.51V46.052H145.218V47ZM152.474 47L151.442 44.348H148.046L147.026 47H145.934L149.282 38.396H150.254L153.59 47H152.474ZM150.158 40.796C150.134 40.732 150.094 40.616 150.038 40.448C149.982 40.28 149.926 40.108 149.87 39.932C149.822 39.748 149.782 39.608 149.75 39.512C149.694 39.76 149.63 40.004 149.558 40.244C149.486 40.476 149.426 40.66 149.378 40.796L148.406 43.388H151.118L150.158 40.796ZM162.739 44.708C162.739 45.468 162.463 46.06 161.911 46.484C161.359 46.908 160.615 47.12 159.679 47.12C159.199 47.12 158.755 47.084 158.347 47.012C157.939 46.94 157.599 46.84 157.327 46.712V45.68C157.615 45.808 157.971 45.924 158.395 46.028C158.827 46.132 159.271 46.184 159.727 46.184C160.367 46.184 160.847 46.06 161.167 45.812C161.495 45.564 161.659 45.228 161.659 44.804C161.659 44.524 161.599 44.288 161.479 44.096C161.359 43.904 161.151 43.728 160.855 43.568C160.567 43.4 160.163 43.224 159.643 43.04C158.915 42.776 158.363 42.452 157.987 42.068C157.619 41.684 157.435 41.16 157.435 40.496C157.435 40.04 157.551 39.652 157.783 39.332C158.015 39.004 158.335 38.752 158.743 38.576C159.159 38.4 159.635 38.312 160.171 38.312C160.643 38.312 161.075 38.356 161.467 38.444C161.859 38.532 162.215 38.648 162.535 38.792L162.199 39.716C161.903 39.588 161.579 39.48 161.227 39.392C160.883 39.304 160.523 39.26 160.147 39.26C159.611 39.26 159.207 39.376 158.935 39.608C158.663 39.832 158.527 40.132 158.527 40.508C158.527 40.796 158.587 41.036 158.707 41.228C158.827 41.42 159.023 41.592 159.295 41.744C159.567 41.896 159.935 42.06 160.399 42.236C160.903 42.42 161.327 42.62 161.671 42.836C162.023 43.044 162.287 43.296 162.463 43.592C162.647 43.888 162.739 44.26 162.739 44.708ZM163.313 40.568H164.441L165.833 44.228C165.953 44.548 166.061 44.856 166.157 45.152C166.253 45.44 166.325 45.716 166.373 45.98H166.421C166.469 45.78 166.545 45.52 166.649 45.2C166.753 44.872 166.861 44.544 166.973 44.216L168.281 40.568H169.421L166.649 47.888C166.425 48.496 166.133 48.98 165.773 49.34C165.421 49.7 164.933 49.88 164.309 49.88C164.117 49.88 163.949 49.868 163.805 49.844C163.661 49.828 163.537 49.808 163.433 49.784V48.944C163.521 48.96 163.625 48.976 163.745 48.992C163.873 49.008 164.005 49.016 164.141 49.016C164.509 49.016 164.805 48.912 165.029 48.704C165.261 48.496 165.441 48.22 165.569 47.876L165.905 47.024L163.313 40.568ZM174.626 45.224C174.626 45.848 174.394 46.32 173.93 46.64C173.466 46.96 172.842 47.12 172.058 47.12C171.61 47.12 171.222 47.084 170.894 47.012C170.574 46.94 170.29 46.84 170.042 46.712V45.752C170.298 45.88 170.606 46 170.966 46.112C171.334 46.216 171.706 46.268 172.082 46.268C172.618 46.268 173.006 46.184 173.246 46.016C173.486 45.84 173.606 45.608 173.606 45.32C173.606 45.16 173.562 45.016 173.474 44.888C173.386 44.76 173.226 44.632 172.994 44.504C172.77 44.376 172.446 44.232 172.022 44.072C171.606 43.912 171.25 43.752 170.954 43.592C170.658 43.432 170.43 43.24 170.27 43.016C170.11 42.792 170.03 42.504 170.03 42.152C170.03 41.608 170.25 41.188 170.69 40.892C171.138 40.596 171.722 40.448 172.442 40.448C172.834 40.448 173.198 40.488 173.534 40.568C173.878 40.64 174.198 40.744 174.494 40.88L174.134 41.72C173.862 41.608 173.578 41.512 173.282 41.432C172.986 41.352 172.682 41.312 172.37 41.312C171.938 41.312 171.606 41.384 171.374 41.528C171.15 41.664 171.038 41.852 171.038 42.092C171.038 42.268 171.09 42.42 171.194 42.548C171.298 42.668 171.47 42.788 171.71 42.908C171.958 43.02 172.286 43.156 172.694 43.316C173.102 43.468 173.45 43.624 173.738 43.784C174.026 43.944 174.246 44.14 174.398 44.372C174.55 44.596 174.626 44.88 174.626 45.224ZM178.328 46.256C178.488 46.256 178.652 46.244 178.82 46.22C178.988 46.188 179.124 46.156 179.228 46.124V46.928C179.116 46.984 178.956 47.028 178.748 47.06C178.54 47.1 178.34 47.12 178.148 47.12C177.812 47.12 177.5 47.064 177.212 46.952C176.932 46.832 176.704 46.628 176.528 46.34C176.352 46.052 176.264 45.648 176.264 45.128V41.384H175.352V40.88L176.276 40.46L176.696 39.092H177.32V40.568H179.18V41.384H177.32V45.104C177.32 45.496 177.412 45.788 177.596 45.98C177.788 46.164 178.032 46.256 178.328 46.256ZM183 40.448C183.552 40.448 184.024 40.568 184.416 40.808C184.816 41.048 185.12 41.388 185.328 41.828C185.544 42.26 185.652 42.768 185.652 43.352V43.988H181.248C181.264 44.716 181.448 45.272 181.8 45.656C182.16 46.032 182.66 46.22 183.3 46.22C183.708 46.22 184.068 46.184 184.38 46.112C184.7 46.032 185.028 45.92 185.364 45.776V46.7C185.036 46.844 184.712 46.948 184.392 47.012C184.072 47.084 183.692 47.12 183.252 47.12C182.644 47.12 182.104 46.996 181.632 46.748C181.168 46.5 180.804 46.132 180.54 45.644C180.284 45.148 180.156 44.544 180.156 43.832C180.156 43.128 180.272 42.524 180.504 42.02C180.744 41.516 181.076 41.128 181.5 40.856C181.932 40.584 182.432 40.448 183 40.448ZM182.988 41.312C182.484 41.312 182.084 41.476 181.788 41.804C181.5 42.124 181.328 42.572 181.272 43.148H184.548C184.54 42.604 184.412 42.164 184.164 41.828C183.916 41.484 183.524 41.312 182.988 41.312ZM194.346 40.448C195.074 40.448 195.618 40.636 195.978 41.012C196.338 41.38 196.518 41.98 196.518 42.812V47H195.474V42.86C195.474 41.844 195.038 41.336 194.166 41.336C193.542 41.336 193.094 41.516 192.822 41.876C192.558 42.236 192.426 42.76 192.426 43.448V47H191.382V42.86C191.382 41.844 190.942 41.336 190.062 41.336C189.414 41.336 188.966 41.536 188.718 41.936C188.47 42.336 188.346 42.912 188.346 43.664V47H187.29V40.568H188.142L188.298 41.444H188.358C188.558 41.108 188.826 40.86 189.162 40.7C189.506 40.532 189.87 40.448 190.254 40.448C191.262 40.448 191.918 40.808 192.222 41.528H192.282C192.498 41.16 192.79 40.888 193.158 40.712C193.534 40.536 193.93 40.448 194.346 40.448ZM202.692 45.224C202.692 45.848 202.46 46.32 201.996 46.64C201.532 46.96 200.908 47.12 200.124 47.12C199.676 47.12 199.288 47.084 198.96 47.012C198.64 46.94 198.356 46.84 198.108 46.712V45.752C198.364 45.88 198.672 46 199.032 46.112C199.4 46.216 199.772 46.268 200.148 46.268C200.684 46.268 201.072 46.184 201.312 46.016C201.552 45.84 201.672 45.608 201.672 45.32C201.672 45.16 201.628 45.016 201.54 44.888C201.452 44.76 201.292 44.632 201.06 44.504C200.836 44.376 200.512 44.232 200.088 44.072C199.672 43.912 199.316 43.752 199.02 43.592C198.724 43.432 198.496 43.24 198.336 43.016C198.176 42.792 198.096 42.504 198.096 42.152C198.096 41.608 198.316 41.188 198.756 40.892C199.204 40.596 199.788 40.448 200.508 40.448C200.9 40.448 201.264 40.488 201.6 40.568C201.944 40.64 202.264 40.744 202.56 40.88L202.2 41.72C201.928 41.608 201.644 41.512 201.348 41.432C201.052 41.352 200.748 41.312 200.436 41.312C200.004 41.312 199.672 41.384 199.44 41.528C199.216 41.664 199.104 41.852 199.104 42.092C199.104 42.268 199.156 42.42 199.26 42.548C199.364 42.668 199.536 42.788 199.776 42.908C200.024 43.02 200.352 43.156 200.76 43.316C201.168 43.468 201.516 43.624 201.804 43.784C202.092 43.944 202.312 44.14 202.464 44.372C202.616 44.596 202.692 44.88 202.692 45.224ZM209.956 38.432C211.028 38.432 211.836 38.592 212.38 38.912C212.932 39.224 213.208 39.772 213.208 40.556C213.208 41.06 213.068 41.48 212.788 41.816C212.508 42.144 212.104 42.356 211.576 42.452V42.512C211.936 42.568 212.26 42.672 212.548 42.824C212.844 42.976 213.076 43.192 213.244 43.472C213.412 43.752 213.496 44.116 213.496 44.564C213.496 45.34 213.228 45.94 212.692 46.364C212.164 46.788 211.44 47 210.52 47H207.508V38.432H209.956ZM210.172 42.08C210.908 42.08 211.412 41.964 211.684 41.732C211.956 41.492 212.092 41.14 212.092 40.676C212.092 40.204 211.924 39.868 211.588 39.668C211.26 39.46 210.732 39.356 210.004 39.356H208.588V42.08H210.172ZM208.588 42.98V46.088H210.316C211.076 46.088 211.604 45.94 211.9 45.644C212.196 45.348 212.344 44.96 212.344 44.48C212.344 44.032 212.188 43.672 211.876 43.4C211.572 43.12 211.024 42.98 210.232 42.98H208.588ZM214.895 46.352C214.895 46.056 214.967 45.848 215.111 45.728C215.255 45.608 215.427 45.548 215.627 45.548C215.835 45.548 216.011 45.608 216.155 45.728C216.307 45.848 216.383 46.056 216.383 46.352C216.383 46.64 216.307 46.848 216.155 46.976C216.011 47.104 215.835 47.168 215.627 47.168C215.427 47.168 215.255 47.104 215.111 46.976C214.967 46.848 214.895 46.64 214.895 46.352ZM223.727 38.432L220.667 47H219.587L216.527 38.432H217.655L219.587 43.928C219.715 44.28 219.823 44.612 219.911 44.924C219.999 45.228 220.071 45.52 220.127 45.8C220.183 45.52 220.255 45.224 220.343 44.912C220.431 44.6 220.539 44.264 220.667 43.904L222.587 38.432H223.727ZM223.989 46.352C223.989 46.056 224.061 45.848 224.205 45.728C224.349 45.608 224.521 45.548 224.721 45.548C224.929 45.548 225.105 45.608 225.249 45.728C225.401 45.848 225.477 46.056 225.477 46.352C225.477 46.64 225.401 46.848 225.249 46.976C225.105 47.104 224.929 47.168 224.721 47.168C224.521 47.168 224.349 47.104 224.205 46.976C224.061 46.848 223.989 46.64 223.989 46.352ZM235.693 47H230.029V46.124L232.273 43.856C232.705 43.424 233.069 43.04 233.365 42.704C233.661 42.368 233.885 42.04 234.037 41.72C234.189 41.392 234.265 41.036 234.265 40.652C234.265 40.18 234.125 39.824 233.845 39.584C233.565 39.336 233.201 39.212 232.753 39.212C232.337 39.212 231.969 39.284 231.649 39.428C231.337 39.572 231.017 39.772 230.689 40.028L230.125 39.32C230.461 39.04 230.845 38.804 231.277 38.612C231.717 38.412 232.209 38.312 232.753 38.312C233.553 38.312 234.185 38.516 234.649 38.924C235.113 39.324 235.345 39.88 235.345 40.592C235.345 41.04 235.253 41.46 235.069 41.852C234.885 42.244 234.629 42.632 234.301 43.016C233.973 43.392 233.589 43.796 233.149 44.228L231.361 45.992V46.04H235.693V47ZM242.596 42.704C242.596 43.624 242.5 44.416 242.308 45.08C242.116 45.736 241.812 46.24 241.396 46.592C240.98 46.944 240.428 47.12 239.74 47.12C238.772 47.12 238.056 46.732 237.592 45.956C237.136 45.172 236.908 44.088 236.908 42.704C236.908 41.776 237 40.984 237.184 40.328C237.376 39.672 237.68 39.172 238.096 38.828C238.512 38.476 239.06 38.3 239.74 38.3C240.7 38.3 241.416 38.688 241.888 39.464C242.36 40.232 242.596 41.312 242.596 42.704ZM237.964 42.704C237.964 43.88 238.096 44.76 238.36 45.344C238.632 45.928 239.092 46.22 239.74 46.22C240.38 46.22 240.836 45.932 241.108 45.356C241.388 44.772 241.528 43.888 241.528 42.704C241.528 41.536 241.388 40.66 241.108 40.076C240.836 39.492 240.38 39.2 239.74 39.2C239.092 39.2 238.632 39.492 238.36 40.076C238.096 40.66 237.964 41.536 237.964 42.704ZM249.464 42.704C249.464 43.624 249.368 44.416 249.176 45.08C248.984 45.736 248.68 46.24 248.264 46.592C247.848 46.944 247.296 47.12 246.608 47.12C245.64 47.12 244.924 46.732 244.46 45.956C244.004 45.172 243.776 44.088 243.776 42.704C243.776 41.776 243.868 40.984 244.052 40.328C244.244 39.672 244.548 39.172 244.964 38.828C245.38 38.476 245.928 38.3 246.608 38.3C247.568 38.3 248.284 38.688 248.756 39.464C249.228 40.232 249.464 41.312 249.464 42.704ZM244.832 42.704C244.832 43.88 244.964 44.76 245.228 45.344C245.5 45.928 245.96 46.22 246.608 46.22C247.248 46.22 247.704 45.932 247.976 45.356C248.256 44.772 248.396 43.888 248.396 42.704C248.396 41.536 248.256 40.66 247.976 40.076C247.704 39.492 247.248 39.2 246.608 39.2C245.96 39.2 245.5 39.492 245.228 40.076C244.964 40.66 244.832 41.536 244.832 42.704ZM256.331 42.704C256.331 43.624 256.235 44.416 256.043 45.08C255.851 45.736 255.547 46.24 255.131 46.592C254.715 46.944 254.163 47.12 253.475 47.12C252.507 47.12 251.791 46.732 251.327 45.956C250.871 45.172 250.643 44.088 250.643 42.704C250.643 41.776 250.735 40.984 250.919 40.328C251.111 39.672 251.415 39.172 251.831 38.828C252.247 38.476 252.795 38.3 253.475 38.3C254.435 38.3 255.151 38.688 255.623 39.464C256.095 40.232 256.331 41.312 256.331 42.704ZM251.699 42.704C251.699 43.88 251.831 44.76 252.095 45.344C252.367 45.928 252.827 46.22 253.475 46.22C254.115 46.22 254.571 45.932 254.843 45.356C255.123 44.772 255.263 43.888 255.263 42.704C255.263 41.536 255.123 40.66 254.843 40.076C254.571 39.492 254.115 39.2 253.475 39.2C252.827 39.2 252.367 39.492 252.095 40.076C251.831 40.66 251.699 41.536 251.699 42.704ZM257.402 44.252V43.316H260.306V44.252H257.402ZM267.029 47H261.365V46.124L263.609 43.856C264.041 43.424 264.405 43.04 264.701 42.704C264.997 42.368 265.221 42.04 265.373 41.72C265.525 41.392 265.601 41.036 265.601 40.652C265.601 40.18 265.461 39.824 265.181 39.584C264.901 39.336 264.537 39.212 264.089 39.212C263.673 39.212 263.305 39.284 262.985 39.428C262.673 39.572 262.353 39.772 262.025 40.028L261.461 39.32C261.797 39.04 262.181 38.804 262.613 38.612C263.053 38.412 263.545 38.312 264.089 38.312C264.889 38.312 265.521 38.516 265.985 38.924C266.449 39.324 266.681 39.88 266.681 40.592C266.681 41.04 266.589 41.46 266.405 41.852C266.221 42.244 265.965 42.632 265.637 43.016C265.309 43.392 264.925 43.796 264.485 44.228L262.697 45.992V46.04H267.029V47ZM273.932 42.704C273.932 43.624 273.836 44.416 273.644 45.08C273.452 45.736 273.148 46.24 272.732 46.592C272.316 46.944 271.764 47.12 271.076 47.12C270.108 47.12 269.392 46.732 268.928 45.956C268.472 45.172 268.244 44.088 268.244 42.704C268.244 41.776 268.336 40.984 268.52 40.328C268.712 39.672 269.016 39.172 269.432 38.828C269.848 38.476 270.396 38.3 271.076 38.3C272.036 38.3 272.752 38.688 273.224 39.464C273.696 40.232 273.932 41.312 273.932 42.704ZM269.3 42.704C269.3 43.88 269.432 44.76 269.696 45.344C269.968 45.928 270.428 46.22 271.076 46.22C271.716 46.22 272.172 45.932 272.444 45.356C272.724 44.772 272.864 43.888 272.864 42.704C272.864 41.536 272.724 40.66 272.444 40.076C272.172 39.492 271.716 39.2 271.076 39.2C270.428 39.2 269.968 39.492 269.696 40.076C269.432 40.66 269.3 41.536 269.3 42.704ZM280.763 47H275.099V46.124L277.343 43.856C277.775 43.424 278.139 43.04 278.435 42.704C278.731 42.368 278.955 42.04 279.107 41.72C279.259 41.392 279.335 41.036 279.335 40.652C279.335 40.18 279.195 39.824 278.915 39.584C278.635 39.336 278.271 39.212 277.823 39.212C277.407 39.212 277.039 39.284 276.719 39.428C276.407 39.572 276.087 39.772 275.759 40.028L275.195 39.32C275.531 39.04 275.915 38.804 276.347 38.612C276.787 38.412 277.279 38.312 277.823 38.312C278.623 38.312 279.255 38.516 279.719 38.924C280.183 39.324 280.415 39.88 280.415 40.592C280.415 41.04 280.323 41.46 280.139 41.852C279.955 42.244 279.699 42.632 279.371 43.016C279.043 43.392 278.659 43.796 278.219 44.228L276.431 45.992V46.04H280.763V47ZM285.651 47H284.619V41.012C284.619 40.668 284.623 40.392 284.631 40.184C284.639 39.976 284.651 39.76 284.667 39.536C284.539 39.664 284.423 39.772 284.319 39.86C284.215 39.948 284.083 40.06 283.923 40.196L283.011 40.94L282.459 40.232L284.775 38.432H285.651V47Z" fill="#484848"/>
<path d="M1037.84 39.26C1036.92 39.26 1036.19 39.568 1035.66 40.184C1035.14 40.8 1034.87 41.644 1034.87 42.716C1034.87 43.78 1035.12 44.624 1035.6 45.248C1036.1 45.864 1036.84 46.172 1037.82 46.172C1038.2 46.172 1038.56 46.14 1038.89 46.076C1039.23 46.012 1039.56 45.932 1039.88 45.836V46.772C1039.56 46.892 1039.22 46.98 1038.88 47.036C1038.54 47.092 1038.14 47.12 1037.67 47.12C1036.8 47.12 1036.07 46.94 1035.48 46.58C1034.9 46.22 1034.46 45.708 1034.16 45.044C1033.88 44.38 1033.73 43.6 1033.73 42.704C1033.73 41.84 1033.89 41.08 1034.2 40.424C1034.52 39.76 1034.99 39.244 1035.6 38.876C1036.22 38.5 1036.97 38.312 1037.85 38.312C1038.75 38.312 1039.54 38.48 1040.21 38.816L1039.78 39.728C1039.52 39.608 1039.22 39.5 1038.89 39.404C1038.57 39.308 1038.22 39.26 1037.84 39.26ZM1047.19 43.772C1047.19 44.836 1046.92 45.66 1046.38 46.244C1045.84 46.828 1045.11 47.12 1044.19 47.12C1043.63 47.12 1043.12 46.992 1042.67 46.736C1042.23 46.472 1041.88 46.092 1041.63 45.596C1041.37 45.092 1041.24 44.484 1041.24 43.772C1041.24 42.708 1041.51 41.888 1042.05 41.312C1042.58 40.736 1043.31 40.448 1044.23 40.448C1044.81 40.448 1045.33 40.58 1045.77 40.844C1046.21 41.1 1046.56 41.476 1046.81 41.972C1047.07 42.46 1047.19 43.06 1047.19 43.772ZM1042.33 43.772C1042.33 44.532 1042.48 45.136 1042.78 45.584C1043.08 46.024 1043.56 46.244 1044.22 46.244C1044.87 46.244 1045.34 46.024 1045.65 45.584C1045.95 45.136 1046.1 44.532 1046.1 43.772C1046.1 43.012 1045.95 42.416 1045.65 41.984C1045.34 41.552 1044.86 41.336 1044.21 41.336C1043.55 41.336 1043.07 41.552 1042.78 41.984C1042.48 42.416 1042.33 43.012 1042.33 43.772ZM1054.46 43.772C1054.46 44.836 1054.19 45.66 1053.64 46.244C1053.11 46.828 1052.38 47.12 1051.46 47.12C1050.89 47.12 1050.38 46.992 1049.94 46.736C1049.5 46.472 1049.15 46.092 1048.89 45.596C1048.64 45.092 1048.51 44.484 1048.51 43.772C1048.51 42.708 1048.78 41.888 1049.31 41.312C1049.85 40.736 1050.58 40.448 1051.5 40.448C1052.08 40.448 1052.59 40.58 1053.03 40.844C1053.48 41.1 1053.83 41.476 1054.08 41.972C1054.33 42.46 1054.46 43.06 1054.46 43.772ZM1049.6 43.772C1049.6 44.532 1049.75 45.136 1050.04 45.584C1050.35 46.024 1050.83 46.244 1051.48 46.244C1052.13 46.244 1052.61 46.024 1052.91 45.584C1053.22 45.136 1053.37 44.532 1053.37 43.772C1053.37 43.012 1053.22 42.416 1052.91 41.984C1052.61 41.552 1052.13 41.336 1051.47 41.336C1050.82 41.336 1050.34 41.552 1050.04 41.984C1049.75 42.416 1049.6 43.012 1049.6 43.772ZM1057.18 42.644C1057.18 42.772 1057.17 42.94 1057.15 43.148C1057.15 43.356 1057.14 43.536 1057.13 43.688H1057.18C1057.23 43.624 1057.3 43.532 1057.39 43.412C1057.49 43.292 1057.59 43.172 1057.68 43.052C1057.79 42.924 1057.87 42.82 1057.95 42.74L1060 40.568H1061.23L1058.63 43.316L1061.41 47H1060.14L1057.91 44L1057.18 44.636V47H1056.13V37.88H1057.18V42.644ZM1063.08 38.156C1063.24 38.156 1063.38 38.212 1063.5 38.324C1063.63 38.428 1063.7 38.596 1063.7 38.828C1063.7 39.052 1063.63 39.22 1063.5 39.332C1063.38 39.444 1063.24 39.5 1063.08 39.5C1062.91 39.5 1062.76 39.444 1062.64 39.332C1062.52 39.22 1062.46 39.052 1062.46 38.828C1062.46 38.596 1062.52 38.428 1062.64 38.324C1062.76 38.212 1062.91 38.156 1063.08 38.156ZM1063.6 40.568V47H1062.54V40.568H1063.6ZM1068.12 40.448C1068.67 40.448 1069.15 40.568 1069.54 40.808C1069.94 41.048 1070.24 41.388 1070.45 41.828C1070.67 42.26 1070.77 42.768 1070.77 43.352V43.988H1066.37C1066.39 44.716 1066.57 45.272 1066.92 45.656C1067.28 46.032 1067.78 46.22 1068.42 46.22C1068.83 46.22 1069.19 46.184 1069.5 46.112C1069.82 46.032 1070.15 45.92 1070.49 45.776V46.7C1070.16 46.844 1069.83 46.948 1069.51 47.012C1069.19 47.084 1068.81 47.12 1068.37 47.12C1067.77 47.12 1067.23 46.996 1066.75 46.748C1066.29 46.5 1065.93 46.132 1065.66 45.644C1065.41 45.148 1065.28 44.544 1065.28 43.832C1065.28 43.128 1065.39 42.524 1065.63 42.02C1065.87 41.516 1066.2 41.128 1066.62 40.856C1067.05 40.584 1067.55 40.448 1068.12 40.448ZM1068.11 41.312C1067.61 41.312 1067.21 41.476 1066.91 41.804C1066.62 42.124 1066.45 42.572 1066.39 43.148H1069.67C1069.66 42.604 1069.53 42.164 1069.29 41.828C1069.04 41.484 1068.65 41.312 1068.11 41.312ZM1078.59 40.448C1079.38 40.448 1080.02 40.724 1080.5 41.276C1080.98 41.828 1081.23 42.66 1081.23 43.772C1081.23 44.868 1080.98 45.7 1080.5 46.268C1080.02 46.836 1079.38 47.12 1078.58 47.12C1078.08 47.12 1077.67 47.028 1077.34 46.844C1077.02 46.652 1076.77 46.432 1076.58 46.184H1076.51C1076.53 46.32 1076.54 46.492 1076.56 46.7C1076.58 46.908 1076.58 47.088 1076.58 47.24V49.88H1075.53V40.568H1076.39L1076.54 41.444H1076.58C1076.78 41.164 1077.03 40.928 1077.34 40.736C1077.65 40.544 1078.07 40.448 1078.59 40.448ZM1078.4 41.336C1077.74 41.336 1077.28 41.52 1077 41.888C1076.74 42.256 1076.6 42.816 1076.58 43.568V43.772C1076.58 44.564 1076.71 45.176 1076.97 45.608C1077.23 46.032 1077.72 46.244 1078.42 46.244C1078.81 46.244 1079.13 46.136 1079.38 45.92C1079.64 45.704 1079.82 45.412 1079.94 45.044C1080.07 44.668 1080.14 44.24 1080.14 43.76C1080.14 43.024 1079.99 42.436 1079.7 41.996C1079.42 41.556 1078.99 41.336 1078.4 41.336ZM1088.5 43.772C1088.5 44.836 1088.23 45.66 1087.69 46.244C1087.15 46.828 1086.42 47.12 1085.5 47.12C1084.93 47.12 1084.43 46.992 1083.98 46.736C1083.54 46.472 1083.19 46.092 1082.93 45.596C1082.68 45.092 1082.55 44.484 1082.55 43.772C1082.55 42.708 1082.82 41.888 1083.35 41.312C1083.89 40.736 1084.62 40.448 1085.54 40.448C1086.12 40.448 1086.63 40.58 1087.07 40.844C1087.52 41.1 1087.87 41.476 1088.12 41.972C1088.37 42.46 1088.5 43.06 1088.5 43.772ZM1083.64 43.772C1083.64 44.532 1083.79 45.136 1084.09 45.584C1084.39 46.024 1084.87 46.244 1085.53 46.244C1086.17 46.244 1086.65 46.024 1086.95 45.584C1087.26 45.136 1087.41 44.532 1087.41 43.772C1087.41 43.012 1087.26 42.416 1086.95 41.984C1086.65 41.552 1086.17 41.336 1085.51 41.336C1084.86 41.336 1084.38 41.552 1084.09 41.984C1083.79 42.416 1083.64 43.012 1083.64 43.772ZM1091.23 47H1090.18V37.88H1091.23V47ZM1093.81 38.156C1093.97 38.156 1094.11 38.212 1094.23 38.324C1094.36 38.428 1094.42 38.596 1094.42 38.828C1094.42 39.052 1094.36 39.22 1094.23 39.332C1094.11 39.444 1093.97 39.5 1093.81 39.5C1093.63 39.5 1093.49 39.444 1093.37 39.332C1093.25 39.22 1093.19 39.052 1093.19 38.828C1093.19 38.596 1093.25 38.428 1093.37 38.324C1093.49 38.212 1093.63 38.156 1093.81 38.156ZM1094.33 40.568V47H1093.27V40.568H1094.33ZM1098.94 47.12C1098.38 47.12 1097.87 47.004 1097.42 46.772C1096.98 46.54 1096.63 46.18 1096.38 45.692C1096.13 45.204 1096 44.58 1096 43.82C1096 43.028 1096.14 42.384 1096.4 41.888C1096.66 41.392 1097.02 41.028 1097.47 40.796C1097.92 40.564 1098.44 40.448 1099.02 40.448C1099.34 40.448 1099.66 40.484 1099.96 40.556C1100.27 40.62 1100.52 40.7 1100.71 40.796L1100.38 41.672C1100.19 41.6 1099.97 41.532 1099.71 41.468C1099.46 41.404 1099.22 41.372 1098.99 41.372C1097.73 41.372 1097.1 42.184 1097.1 43.808C1097.1 44.584 1097.25 45.18 1097.55 45.596C1097.86 46.004 1098.32 46.208 1098.93 46.208C1099.28 46.208 1099.59 46.172 1099.86 46.1C1100.13 46.028 1100.38 45.94 1100.6 45.836V46.772C1100.38 46.884 1100.14 46.968 1099.88 47.024C1099.62 47.088 1099.31 47.12 1098.94 47.12ZM1101.12 40.568H1102.25L1103.64 44.228C1103.76 44.548 1103.87 44.856 1103.97 45.152C1104.06 45.44 1104.13 45.716 1104.18 45.98H1104.23C1104.28 45.78 1104.35 45.52 1104.46 45.2C1104.56 44.872 1104.67 44.544 1104.78 44.216L1106.09 40.568H1107.23L1104.46 47.888C1104.23 48.496 1103.94 48.98 1103.58 49.34C1103.23 49.7 1102.74 49.88 1102.12 49.88C1101.93 49.88 1101.76 49.868 1101.61 49.844C1101.47 49.828 1101.35 49.808 1101.24 49.784V48.944C1101.33 48.96 1101.43 48.976 1101.55 48.992C1101.68 49.008 1101.81 49.016 1101.95 49.016C1102.32 49.016 1102.61 48.912 1102.84 48.704C1103.07 48.496 1103.25 48.22 1103.38 47.876L1103.71 47.024L1101.12 40.568Z" fill="#484848"/>
<path d="M1138.84 39.26C1137.92 39.26 1137.19 39.568 1136.66 40.184C1136.14 40.8 1135.87 41.644 1135.87 42.716C1135.87 43.78 1136.12 44.624 1136.6 45.248C1137.1 45.864 1137.84 46.172 1138.82 46.172C1139.2 46.172 1139.56 46.14 1139.89 46.076C1140.23 46.012 1140.56 45.932 1140.88 45.836V46.772C1140.56 46.892 1140.22 46.98 1139.88 47.036C1139.54 47.092 1139.14 47.12 1138.67 47.12C1137.8 47.12 1137.07 46.94 1136.48 46.58C1135.9 46.22 1135.46 45.708 1135.16 45.044C1134.88 44.38 1134.73 43.6 1134.73 42.704C1134.73 41.84 1134.89 41.08 1135.2 40.424C1135.52 39.76 1135.99 39.244 1136.6 38.876C1137.22 38.5 1137.97 38.312 1138.85 38.312C1139.75 38.312 1140.54 38.48 1141.21 38.816L1140.78 39.728C1140.52 39.608 1140.22 39.5 1139.89 39.404C1139.57 39.308 1139.22 39.26 1138.84 39.26ZM1148.19 43.772C1148.19 44.836 1147.92 45.66 1147.38 46.244C1146.84 46.828 1146.11 47.12 1145.19 47.12C1144.63 47.12 1144.12 46.992 1143.67 46.736C1143.23 46.472 1142.88 46.092 1142.63 45.596C1142.37 45.092 1142.24 44.484 1142.24 43.772C1142.24 42.708 1142.51 41.888 1143.05 41.312C1143.58 40.736 1144.31 40.448 1145.23 40.448C1145.81 40.448 1146.33 40.58 1146.77 40.844C1147.21 41.1 1147.56 41.476 1147.81 41.972C1148.07 42.46 1148.19 43.06 1148.19 43.772ZM1143.33 43.772C1143.33 44.532 1143.48 45.136 1143.78 45.584C1144.08 46.024 1144.56 46.244 1145.22 46.244C1145.87 46.244 1146.34 46.024 1146.65 45.584C1146.95 45.136 1147.1 44.532 1147.1 43.772C1147.1 43.012 1146.95 42.416 1146.65 41.984C1146.34 41.552 1145.86 41.336 1145.21 41.336C1144.55 41.336 1144.07 41.552 1143.78 41.984C1143.48 42.416 1143.33 43.012 1143.33 43.772ZM1155.46 43.772C1155.46 44.836 1155.19 45.66 1154.64 46.244C1154.11 46.828 1153.38 47.12 1152.46 47.12C1151.89 47.12 1151.38 46.992 1150.94 46.736C1150.5 46.472 1150.15 46.092 1149.89 45.596C1149.64 45.092 1149.51 44.484 1149.51 43.772C1149.51 42.708 1149.78 41.888 1150.31 41.312C1150.85 40.736 1151.58 40.448 1152.5 40.448C1153.08 40.448 1153.59 40.58 1154.03 40.844C1154.48 41.1 1154.83 41.476 1155.08 41.972C1155.33 42.46 1155.46 43.06 1155.46 43.772ZM1150.6 43.772C1150.6 44.532 1150.75 45.136 1151.04 45.584C1151.35 46.024 1151.83 46.244 1152.48 46.244C1153.13 46.244 1153.61 46.024 1153.91 45.584C1154.22 45.136 1154.37 44.532 1154.37 43.772C1154.37 43.012 1154.22 42.416 1153.91 41.984C1153.61 41.552 1153.13 41.336 1152.47 41.336C1151.82 41.336 1151.34 41.552 1151.04 41.984C1150.75 42.416 1150.6 43.012 1150.6 43.772ZM1158.18 42.644C1158.18 42.772 1158.17 42.94 1158.15 43.148C1158.15 43.356 1158.14 43.536 1158.13 43.688H1158.18C1158.23 43.624 1158.3 43.532 1158.39 43.412C1158.49 43.292 1158.59 43.172 1158.68 43.052C1158.79 42.924 1158.87 42.82 1158.95 42.74L1161 40.568H1162.23L1159.63 43.316L1162.41 47H1161.14L1158.91 44L1158.18 44.636V47H1157.13V37.88H1158.18V42.644ZM1164.08 38.156C1164.24 38.156 1164.38 38.212 1164.5 38.324C1164.63 38.428 1164.7 38.596 1164.7 38.828C1164.7 39.052 1164.63 39.22 1164.5 39.332C1164.38 39.444 1164.24 39.5 1164.08 39.5C1163.91 39.5 1163.76 39.444 1163.64 39.332C1163.52 39.22 1163.46 39.052 1163.46 38.828C1163.46 38.596 1163.52 38.428 1163.64 38.324C1163.76 38.212 1163.91 38.156 1164.08 38.156ZM1164.6 40.568V47H1163.54V40.568H1164.6ZM1169.12 40.448C1169.67 40.448 1170.15 40.568 1170.54 40.808C1170.94 41.048 1171.24 41.388 1171.45 41.828C1171.67 42.26 1171.77 42.768 1171.77 43.352V43.988H1167.37C1167.39 44.716 1167.57 45.272 1167.92 45.656C1168.28 46.032 1168.78 46.22 1169.42 46.22C1169.83 46.22 1170.19 46.184 1170.5 46.112C1170.82 46.032 1171.15 45.92 1171.49 45.776V46.7C1171.16 46.844 1170.83 46.948 1170.51 47.012C1170.19 47.084 1169.81 47.12 1169.37 47.12C1168.77 47.12 1168.23 46.996 1167.75 46.748C1167.29 46.5 1166.93 46.132 1166.66 45.644C1166.41 45.148 1166.28 44.544 1166.28 43.832C1166.28 43.128 1166.39 42.524 1166.63 42.02C1166.87 41.516 1167.2 41.128 1167.62 40.856C1168.05 40.584 1168.55 40.448 1169.12 40.448ZM1169.11 41.312C1168.61 41.312 1168.21 41.476 1167.91 41.804C1167.62 42.124 1167.45 42.572 1167.39 43.148H1170.67C1170.66 42.604 1170.53 42.164 1170.29 41.828C1170.04 41.484 1169.65 41.312 1169.11 41.312ZM1180.72 45.224C1180.72 45.848 1180.48 46.32 1180.02 46.64C1179.56 46.96 1178.93 47.12 1178.15 47.12C1177.7 47.12 1177.31 47.084 1176.98 47.012C1176.66 46.94 1176.38 46.84 1176.13 46.712V45.752C1176.39 45.88 1176.7 46 1177.06 46.112C1177.42 46.216 1177.8 46.268 1178.17 46.268C1178.71 46.268 1179.1 46.184 1179.34 46.016C1179.58 45.84 1179.7 45.608 1179.7 45.32C1179.7 45.16 1179.65 45.016 1179.56 44.888C1179.48 44.76 1179.32 44.632 1179.08 44.504C1178.86 44.376 1178.54 44.232 1178.11 44.072C1177.7 43.912 1177.34 43.752 1177.04 43.592C1176.75 43.432 1176.52 43.24 1176.36 43.016C1176.2 42.792 1176.12 42.504 1176.12 42.152C1176.12 41.608 1176.34 41.188 1176.78 40.892C1177.23 40.596 1177.81 40.448 1178.53 40.448C1178.92 40.448 1179.29 40.488 1179.62 40.568C1179.97 40.64 1180.29 40.744 1180.58 40.88L1180.22 41.72C1179.95 41.608 1179.67 41.512 1179.37 41.432C1179.08 41.352 1178.77 41.312 1178.46 41.312C1178.03 41.312 1177.7 41.384 1177.46 41.528C1177.24 41.664 1177.13 41.852 1177.13 42.092C1177.13 42.268 1177.18 42.42 1177.28 42.548C1177.39 42.668 1177.56 42.788 1177.8 42.908C1178.05 43.02 1178.38 43.156 1178.78 43.316C1179.19 43.468 1179.54 43.624 1179.83 43.784C1180.12 43.944 1180.34 44.14 1180.49 44.372C1180.64 44.596 1180.72 44.88 1180.72 45.224ZM1184.75 40.448C1185.31 40.448 1185.78 40.568 1186.17 40.808C1186.57 41.048 1186.87 41.388 1187.08 41.828C1187.3 42.26 1187.41 42.768 1187.41 43.352V43.988H1183C1183.02 44.716 1183.2 45.272 1183.55 45.656C1183.91 46.032 1184.41 46.22 1185.05 46.22C1185.46 46.22 1185.82 46.184 1186.13 46.112C1186.45 46.032 1186.78 45.92 1187.12 45.776V46.7C1186.79 46.844 1186.47 46.948 1186.15 47.012C1185.83 47.084 1185.45 47.12 1185.01 47.12C1184.4 47.12 1183.86 46.996 1183.39 46.748C1182.92 46.5 1182.56 46.132 1182.29 45.644C1182.04 45.148 1181.91 44.544 1181.91 43.832C1181.91 43.128 1182.03 42.524 1182.26 42.02C1182.5 41.516 1182.83 41.128 1183.25 40.856C1183.69 40.584 1184.19 40.448 1184.75 40.448ZM1184.74 41.312C1184.24 41.312 1183.84 41.476 1183.54 41.804C1183.25 42.124 1183.08 42.572 1183.03 43.148H1186.3C1186.29 42.604 1186.17 42.164 1185.92 41.828C1185.67 41.484 1185.28 41.312 1184.74 41.312ZM1191.19 46.256C1191.35 46.256 1191.52 46.244 1191.68 46.22C1191.85 46.188 1191.99 46.156 1192.09 46.124V46.928C1191.98 46.984 1191.82 47.028 1191.61 47.06C1191.4 47.1 1191.2 47.12 1191.01 47.12C1190.68 47.12 1190.36 47.064 1190.08 46.952C1189.8 46.832 1189.57 46.628 1189.39 46.34C1189.22 46.052 1189.13 45.648 1189.13 45.128V41.384H1188.22V40.88L1189.14 40.46L1189.56 39.092H1190.18V40.568H1192.04V41.384H1190.18V45.104C1190.18 45.496 1190.28 45.788 1190.46 45.98C1190.65 46.164 1190.9 46.256 1191.19 46.256ZM1195.53 46.256C1195.69 46.256 1195.85 46.244 1196.02 46.22C1196.19 46.188 1196.32 46.156 1196.43 46.124V46.928C1196.32 46.984 1196.16 47.028 1195.95 47.06C1195.74 47.1 1195.54 47.12 1195.35 47.12C1195.01 47.12 1194.7 47.064 1194.41 46.952C1194.13 46.832 1193.9 46.628 1193.73 46.34C1193.55 46.052 1193.46 45.648 1193.46 45.128V41.384H1192.55V40.88L1193.48 40.46L1193.9 39.092H1194.52V40.568H1196.38V41.384H1194.52V45.104C1194.52 45.496 1194.61 45.788 1194.8 45.98C1194.99 46.164 1195.23 46.256 1195.53 46.256ZM1198.26 38.156C1198.42 38.156 1198.56 38.212 1198.68 38.324C1198.8 38.428 1198.87 38.596 1198.87 38.828C1198.87 39.052 1198.8 39.22 1198.68 39.332C1198.56 39.444 1198.42 39.5 1198.26 39.5C1198.08 39.5 1197.93 39.444 1197.81 39.332C1197.69 39.22 1197.63 39.052 1197.63 38.828C1197.63 38.596 1197.69 38.428 1197.81 38.324C1197.93 38.212 1198.08 38.156 1198.26 38.156ZM1198.77 40.568V47H1197.72V40.568H1198.77ZM1203.91 40.448C1204.67 40.448 1205.25 40.636 1205.65 41.012C1206.04 41.38 1206.23 41.98 1206.23 42.812V47H1205.19V42.884C1205.19 41.852 1204.71 41.336 1203.75 41.336C1203.04 41.336 1202.55 41.536 1202.27 41.936C1202 42.336 1201.87 42.912 1201.87 43.664V47H1200.81V40.568H1201.66L1201.82 41.444H1201.88C1202.09 41.108 1202.37 40.86 1202.74 40.7C1203.11 40.532 1203.5 40.448 1203.91 40.448ZM1210.51 40.448C1210.93 40.448 1211.31 40.528 1211.65 40.688C1211.99 40.848 1212.28 41.092 1212.52 41.42H1212.58L1212.73 40.568H1213.57V47.108C1213.57 48.028 1213.33 48.72 1212.86 49.184C1212.4 49.648 1211.67 49.88 1210.69 49.88C1209.74 49.88 1208.97 49.744 1208.37 49.472V48.5C1209 48.836 1209.8 49.004 1210.75 49.004C1211.3 49.004 1211.73 48.84 1212.04 48.512C1212.36 48.192 1212.52 47.752 1212.52 47.192V46.94C1212.52 46.844 1212.53 46.708 1212.54 46.532C1212.54 46.348 1212.55 46.22 1212.56 46.148H1212.51C1212.08 46.796 1211.42 47.12 1210.52 47.12C1209.69 47.12 1209.04 46.828 1208.56 46.244C1208.1 45.66 1207.87 44.844 1207.87 43.796C1207.87 42.772 1208.1 41.96 1208.56 41.36C1209.04 40.752 1209.68 40.448 1210.51 40.448ZM1210.65 41.336C1210.12 41.336 1209.7 41.552 1209.4 41.984C1209.11 42.408 1208.96 43.016 1208.96 43.808C1208.96 44.6 1209.1 45.208 1209.39 45.632C1209.69 46.048 1210.12 46.256 1210.68 46.256C1211.32 46.256 1211.8 46.084 1212.09 45.74C1212.39 45.388 1212.54 44.824 1212.54 44.048V43.796C1212.54 42.916 1212.38 42.288 1212.08 41.912C1211.78 41.528 1211.3 41.336 1210.65 41.336ZM1219.8 45.224C1219.8 45.848 1219.57 46.32 1219.1 46.64C1218.64 46.96 1218.01 47.12 1217.23 47.12C1216.78 47.12 1216.39 47.084 1216.07 47.012C1215.75 46.94 1215.46 46.84 1215.21 46.712V45.752C1215.47 45.88 1215.78 46 1216.14 46.112C1216.51 46.216 1216.88 46.268 1217.25 46.268C1217.79 46.268 1218.18 46.184 1218.42 46.016C1218.66 45.84 1218.78 45.608 1218.78 45.32C1218.78 45.16 1218.73 45.016 1218.65 44.888C1218.56 44.76 1218.4 44.632 1218.17 44.504C1217.94 44.376 1217.62 44.232 1217.19 44.072C1216.78 43.912 1216.42 43.752 1216.13 43.592C1215.83 43.432 1215.6 43.24 1215.44 43.016C1215.28 42.792 1215.2 42.504 1215.2 42.152C1215.2 41.608 1215.42 41.188 1215.86 40.892C1216.31 40.596 1216.89 40.448 1217.61 40.448C1218.01 40.448 1218.37 40.488 1218.71 40.568C1219.05 40.64 1219.37 40.744 1219.67 40.88L1219.31 41.72C1219.03 41.608 1218.75 41.512 1218.45 41.432C1218.16 41.352 1217.85 41.312 1217.54 41.312C1217.11 41.312 1216.78 41.384 1216.55 41.528C1216.32 41.664 1216.21 41.852 1216.21 42.092C1216.21 42.268 1216.26 42.42 1216.37 42.548C1216.47 42.668 1216.64 42.788 1216.88 42.908C1217.13 43.02 1217.46 43.156 1217.87 43.316C1218.27 43.468 1218.62 43.624 1218.91 43.784C1219.2 43.944 1219.42 44.14 1219.57 44.372C1219.72 44.596 1219.8 44.88 1219.8 45.224Z" fill="#484848"/>
<path d="M1237.88 47H1236.8V39.38H1234.12V38.432H1240.54V39.38H1237.88V47ZM1243.33 40.448C1243.88 40.448 1244.35 40.568 1244.74 40.808C1245.14 41.048 1245.45 41.388 1245.66 41.828C1245.87 42.26 1245.98 42.768 1245.98 43.352V43.988H1241.58C1241.59 44.716 1241.78 45.272 1242.13 45.656C1242.49 46.032 1242.99 46.22 1243.63 46.22C1244.04 46.22 1244.4 46.184 1244.71 46.112C1245.03 46.032 1245.36 45.92 1245.69 45.776V46.7C1245.36 46.844 1245.04 46.948 1244.72 47.012C1244.4 47.084 1244.02 47.12 1243.58 47.12C1242.97 47.12 1242.43 46.996 1241.96 46.748C1241.5 46.5 1241.13 46.132 1240.87 45.644C1240.61 45.148 1240.48 44.544 1240.48 43.832C1240.48 43.128 1240.6 42.524 1240.83 42.02C1241.07 41.516 1241.4 41.128 1241.83 40.856C1242.26 40.584 1242.76 40.448 1243.33 40.448ZM1243.32 41.312C1242.81 41.312 1242.41 41.476 1242.12 41.804C1241.83 42.124 1241.66 42.572 1241.6 43.148H1244.88C1244.87 42.604 1244.74 42.164 1244.49 41.828C1244.24 41.484 1243.85 41.312 1243.32 41.312ZM1250.62 40.448C1250.74 40.448 1250.87 40.456 1251 40.472C1251.15 40.48 1251.27 40.496 1251.37 40.52L1251.24 41.492C1251.14 41.468 1251.02 41.448 1250.89 41.432C1250.77 41.416 1250.66 41.408 1250.55 41.408C1250.22 41.408 1249.91 41.5 1249.62 41.684C1249.33 41.86 1249.1 42.112 1248.93 42.44C1248.76 42.76 1248.67 43.136 1248.67 43.568V47H1247.62V40.568H1248.48L1248.6 41.744H1248.65C1248.86 41.392 1249.13 41.088 1249.45 40.832C1249.78 40.576 1250.17 40.448 1250.62 40.448ZM1259.63 40.448C1260.36 40.448 1260.9 40.636 1261.26 41.012C1261.62 41.38 1261.8 41.98 1261.8 42.812V47H1260.76V42.86C1260.76 41.844 1260.32 41.336 1259.45 41.336C1258.83 41.336 1258.38 41.516 1258.11 41.876C1257.84 42.236 1257.71 42.76 1257.71 43.448V47H1256.67V42.86C1256.67 41.844 1256.23 41.336 1255.35 41.336C1254.7 41.336 1254.25 41.536 1254 41.936C1253.75 42.336 1253.63 42.912 1253.63 43.664V47H1252.57V40.568H1253.43L1253.58 41.444H1253.64C1253.84 41.108 1254.11 40.86 1254.45 40.7C1254.79 40.532 1255.15 40.448 1255.54 40.448C1256.55 40.448 1257.2 40.808 1257.51 41.528H1257.57C1257.78 41.16 1258.07 40.888 1258.44 40.712C1258.82 40.536 1259.21 40.448 1259.63 40.448ZM1267.98 45.224C1267.98 45.848 1267.75 46.32 1267.28 46.64C1266.82 46.96 1266.19 47.12 1265.41 47.12C1264.96 47.12 1264.57 47.084 1264.25 47.012C1263.93 46.94 1263.64 46.84 1263.39 46.712V45.752C1263.65 45.88 1263.96 46 1264.32 46.112C1264.69 46.216 1265.06 46.268 1265.43 46.268C1265.97 46.268 1266.36 46.184 1266.6 46.016C1266.84 45.84 1266.96 45.608 1266.96 45.32C1266.96 45.16 1266.91 45.016 1266.83 44.888C1266.74 44.76 1266.58 44.632 1266.35 44.504C1266.12 44.376 1265.8 44.232 1265.37 44.072C1264.96 43.912 1264.6 43.752 1264.31 43.592C1264.01 43.432 1263.78 43.24 1263.62 43.016C1263.46 42.792 1263.38 42.504 1263.38 42.152C1263.38 41.608 1263.6 41.188 1264.04 40.892C1264.49 40.596 1265.07 40.448 1265.79 40.448C1266.19 40.448 1266.55 40.488 1266.89 40.568C1267.23 40.64 1267.55 40.744 1267.85 40.88L1267.49 41.72C1267.21 41.608 1266.93 41.512 1266.63 41.432C1266.34 41.352 1266.03 41.312 1265.72 41.312C1265.29 41.312 1264.96 41.384 1264.73 41.528C1264.5 41.664 1264.39 41.852 1264.39 42.092C1264.39 42.268 1264.44 42.42 1264.55 42.548C1264.65 42.668 1264.82 42.788 1265.06 42.908C1265.31 43.02 1265.64 43.156 1266.05 43.316C1266.45 43.468 1266.8 43.624 1267.09 43.784C1267.38 43.944 1267.6 44.14 1267.75 44.372C1267.9 44.596 1267.98 44.88 1267.98 45.224ZM1275.08 40.46C1275.87 40.46 1276.45 40.632 1276.82 40.976C1277.2 41.32 1277.39 41.868 1277.39 42.62V47H1276.62L1276.42 46.088H1276.37C1276.09 46.44 1275.79 46.7 1275.48 46.868C1275.18 47.036 1274.75 47.12 1274.21 47.12C1273.62 47.12 1273.14 46.968 1272.76 46.664C1272.37 46.352 1272.18 45.868 1272.18 45.212C1272.18 44.572 1272.43 44.08 1272.94 43.736C1273.44 43.384 1274.22 43.192 1275.26 43.16L1276.36 43.124V42.74C1276.36 42.204 1276.24 41.832 1276.01 41.624C1275.78 41.416 1275.45 41.312 1275.02 41.312C1274.69 41.312 1274.37 41.364 1274.06 41.468C1273.76 41.564 1273.48 41.676 1273.21 41.804L1272.89 41.012C1273.17 40.86 1273.5 40.732 1273.88 40.628C1274.27 40.516 1274.67 40.46 1275.08 40.46ZM1275.4 43.892C1274.6 43.924 1274.04 44.052 1273.73 44.276C1273.42 44.5 1273.27 44.816 1273.27 45.224C1273.27 45.584 1273.38 45.848 1273.6 46.016C1273.82 46.184 1274.1 46.268 1274.45 46.268C1274.99 46.268 1275.44 46.12 1275.8 45.824C1276.16 45.52 1276.34 45.056 1276.34 44.432V43.856L1275.4 43.892ZM1282.47 40.448C1283.24 40.448 1283.82 40.636 1284.21 41.012C1284.6 41.38 1284.8 41.98 1284.8 42.812V47H1283.76V42.884C1283.76 41.852 1283.28 41.336 1282.32 41.336C1281.6 41.336 1281.11 41.536 1280.84 41.936C1280.57 42.336 1280.43 42.912 1280.43 43.664V47H1279.38V40.568H1280.23L1280.38 41.444H1280.44C1280.65 41.108 1280.94 40.86 1281.31 40.7C1281.68 40.532 1282.06 40.448 1282.47 40.448ZM1289.07 47.12C1288.27 47.12 1287.63 46.844 1287.15 46.292C1286.67 45.732 1286.43 44.9 1286.43 43.796C1286.43 42.692 1286.67 41.86 1287.15 41.3C1287.64 40.732 1288.29 40.448 1289.09 40.448C1289.58 40.448 1289.99 40.54 1290.3 40.724C1290.62 40.908 1290.88 41.132 1291.08 41.396H1291.15C1291.14 41.292 1291.13 41.14 1291.1 40.94C1291.09 40.732 1291.08 40.568 1291.08 40.448V37.88H1292.13V47H1291.28L1291.13 46.136H1291.08C1290.89 46.408 1290.63 46.64 1290.31 46.832C1289.99 47.024 1289.58 47.12 1289.07 47.12ZM1289.24 46.244C1289.92 46.244 1290.4 46.06 1290.67 45.692C1290.95 45.316 1291.09 44.752 1291.09 44V43.808C1291.09 43.008 1290.96 42.396 1290.69 41.972C1290.43 41.54 1289.94 41.324 1289.23 41.324C1288.66 41.324 1288.23 41.552 1287.95 42.008C1287.67 42.456 1287.53 43.06 1287.53 43.82C1287.53 44.588 1287.67 45.184 1287.95 45.608C1288.23 46.032 1288.67 46.244 1289.24 46.244ZM1299.87 47.12C1299.31 47.12 1298.8 47.004 1298.35 46.772C1297.91 46.54 1297.56 46.18 1297.31 45.692C1297.06 45.204 1296.93 44.58 1296.93 43.82C1296.93 43.028 1297.07 42.384 1297.33 41.888C1297.59 41.392 1297.95 41.028 1298.4 40.796C1298.85 40.564 1299.37 40.448 1299.95 40.448C1300.27 40.448 1300.59 40.484 1300.89 40.556C1301.2 40.62 1301.45 40.7 1301.64 40.796L1301.31 41.672C1301.12 41.6 1300.9 41.532 1300.64 41.468C1300.39 41.404 1300.15 41.372 1299.92 41.372C1298.66 41.372 1298.03 42.184 1298.03 43.808C1298.03 44.584 1298.18 45.18 1298.48 45.596C1298.79 46.004 1299.25 46.208 1299.86 46.208C1300.21 46.208 1300.52 46.172 1300.79 46.1C1301.06 46.028 1301.31 45.94 1301.53 45.836V46.772C1301.31 46.884 1301.07 46.968 1300.81 47.024C1300.55 47.088 1300.24 47.12 1299.87 47.12ZM1308.65 43.772C1308.65 44.836 1308.38 45.66 1307.84 46.244C1307.3 46.828 1306.57 47.12 1305.65 47.12C1305.08 47.12 1304.58 46.992 1304.13 46.736C1303.69 46.472 1303.34 46.092 1303.08 45.596C1302.83 45.092 1302.7 44.484 1302.7 43.772C1302.7 42.708 1302.97 41.888 1303.5 41.312C1304.04 40.736 1304.77 40.448 1305.69 40.448C1306.27 40.448 1306.78 40.58 1307.22 40.844C1307.67 41.1 1308.02 41.476 1308.27 41.972C1308.52 42.46 1308.65 43.06 1308.65 43.772ZM1303.79 43.772C1303.79 44.532 1303.94 45.136 1304.24 45.584C1304.54 46.024 1305.02 46.244 1305.68 46.244C1306.32 46.244 1306.8 46.024 1307.1 45.584C1307.41 45.136 1307.56 44.532 1307.56 43.772C1307.56 43.012 1307.41 42.416 1307.1 41.984C1306.8 41.552 1306.32 41.336 1305.66 41.336C1305.01 41.336 1304.53 41.552 1304.24 41.984C1303.94 42.416 1303.79 43.012 1303.79 43.772ZM1313.42 40.448C1314.19 40.448 1314.77 40.636 1315.16 41.012C1315.55 41.38 1315.75 41.98 1315.75 42.812V47H1314.7V42.884C1314.7 41.852 1314.22 41.336 1313.26 41.336C1312.55 41.336 1312.06 41.536 1311.79 41.936C1311.52 42.336 1311.38 42.912 1311.38 43.664V47H1310.32V40.568H1311.18L1311.33 41.444H1311.39C1311.6 41.108 1311.89 40.86 1312.26 40.7C1312.62 40.532 1313.01 40.448 1313.42 40.448ZM1320.02 47.12C1319.22 47.12 1318.58 46.844 1318.1 46.292C1317.62 45.732 1317.38 44.9 1317.38 43.796C1317.38 42.692 1317.62 41.86 1318.1 41.3C1318.59 40.732 1319.23 40.448 1320.03 40.448C1320.53 40.448 1320.93 40.54 1321.25 40.724C1321.57 40.908 1321.83 41.132 1322.03 41.396H1322.1C1322.09 41.292 1322.07 41.14 1322.05 40.94C1322.03 40.732 1322.03 40.568 1322.03 40.448V37.88H1323.08V47H1322.23L1322.07 46.136H1322.03C1321.83 46.408 1321.58 46.64 1321.26 46.832C1320.94 47.024 1320.53 47.12 1320.02 47.12ZM1320.19 46.244C1320.87 46.244 1321.35 46.06 1321.62 45.692C1321.9 45.316 1322.04 44.752 1322.04 44V43.808C1322.04 43.008 1321.91 42.396 1321.64 41.972C1321.38 41.54 1320.89 41.324 1320.18 41.324C1319.61 41.324 1319.18 41.552 1318.89 42.008C1318.61 42.456 1318.47 43.06 1318.47 43.82C1318.47 44.588 1318.61 45.184 1318.89 45.608C1319.18 46.032 1319.61 46.244 1320.19 46.244ZM1325.67 38.156C1325.83 38.156 1325.97 38.212 1326.09 38.324C1326.21 38.428 1326.28 38.596 1326.28 38.828C1326.28 39.052 1326.21 39.22 1326.09 39.332C1325.97 39.444 1325.83 39.5 1325.67 39.5C1325.49 39.5 1325.34 39.444 1325.22 39.332C1325.1 39.22 1325.04 39.052 1325.04 38.828C1325.04 38.596 1325.1 38.428 1325.22 38.324C1325.34 38.212 1325.49 38.156 1325.67 38.156ZM1326.18 40.568V47H1325.13V40.568H1326.18ZM1330.37 46.256C1330.53 46.256 1330.69 46.244 1330.86 46.22C1331.03 46.188 1331.16 46.156 1331.27 46.124V46.928C1331.16 46.984 1331 47.028 1330.79 47.06C1330.58 47.1 1330.38 47.12 1330.19 47.12C1329.85 47.12 1329.54 47.064 1329.25 46.952C1328.97 46.832 1328.74 46.628 1328.57 46.34C1328.39 46.052 1328.3 45.648 1328.3 45.128V41.384H1327.39V40.88L1328.32 40.46L1328.74 39.092H1329.36V40.568H1331.22V41.384H1329.36V45.104C1329.36 45.496 1329.45 45.788 1329.64 45.98C1329.83 46.164 1330.07 46.256 1330.37 46.256ZM1333.1 38.156C1333.26 38.156 1333.4 38.212 1333.52 38.324C1333.64 38.428 1333.71 38.596 1333.71 38.828C1333.71 39.052 1333.64 39.22 1333.52 39.332C1333.4 39.444 1333.26 39.5 1333.1 39.5C1332.92 39.5 1332.77 39.444 1332.65 39.332C1332.53 39.22 1332.47 39.052 1332.47 38.828C1332.47 38.596 1332.53 38.428 1332.65 38.324C1332.77 38.212 1332.92 38.156 1333.1 38.156ZM1333.61 40.568V47H1332.56V40.568H1333.61ZM1341.24 43.772C1341.24 44.836 1340.97 45.66 1340.42 46.244C1339.89 46.828 1339.16 47.12 1338.24 47.12C1337.67 47.12 1337.16 46.992 1336.72 46.736C1336.28 46.472 1335.93 46.092 1335.67 45.596C1335.42 45.092 1335.29 44.484 1335.29 43.772C1335.29 42.708 1335.56 41.888 1336.09 41.312C1336.63 40.736 1337.36 40.448 1338.28 40.448C1338.86 40.448 1339.37 40.58 1339.81 40.844C1340.26 41.1 1340.61 41.476 1340.86 41.972C1341.11 42.46 1341.24 43.06 1341.24 43.772ZM1336.38 43.772C1336.38 44.532 1336.53 45.136 1336.82 45.584C1337.13 46.024 1337.61 46.244 1338.26 46.244C1338.91 46.244 1339.39 46.024 1339.69 45.584C1340 45.136 1340.15 44.532 1340.15 43.772C1340.15 43.012 1340 42.416 1339.69 41.984C1339.39 41.552 1338.91 41.336 1338.25 41.336C1337.6 41.336 1337.12 41.552 1336.82 41.984C1336.53 42.416 1336.38 43.012 1336.38 43.772ZM1346.01 40.448C1346.78 40.448 1347.36 40.636 1347.75 41.012C1348.14 41.38 1348.34 41.98 1348.34 42.812V47H1347.29V42.884C1347.29 41.852 1346.81 41.336 1345.85 41.336C1345.14 41.336 1344.65 41.536 1344.38 41.936C1344.11 42.336 1343.97 42.912 1343.97 43.664V47H1342.91V40.568H1343.77L1343.92 41.444H1343.98C1344.19 41.108 1344.48 40.86 1344.85 40.7C1345.21 40.532 1345.6 40.448 1346.01 40.448ZM1354.52 45.224C1354.52 45.848 1354.29 46.32 1353.82 46.64C1353.36 46.96 1352.74 47.12 1351.95 47.12C1351.5 47.12 1351.12 47.084 1350.79 47.012C1350.47 46.94 1350.18 46.84 1349.94 46.712V45.752C1350.19 45.88 1350.5 46 1350.86 46.112C1351.23 46.216 1351.6 46.268 1351.98 46.268C1352.51 46.268 1352.9 46.184 1353.14 46.016C1353.38 45.84 1353.5 45.608 1353.5 45.32C1353.5 45.16 1353.46 45.016 1353.37 44.888C1353.28 44.76 1353.12 44.632 1352.89 44.504C1352.66 44.376 1352.34 44.232 1351.92 44.072C1351.5 43.912 1351.14 43.752 1350.85 43.592C1350.55 43.432 1350.32 43.24 1350.16 43.016C1350 42.792 1349.92 42.504 1349.92 42.152C1349.92 41.608 1350.14 41.188 1350.58 40.892C1351.03 40.596 1351.62 40.448 1352.34 40.448C1352.73 40.448 1353.09 40.488 1353.43 40.568C1353.77 40.64 1354.09 40.744 1354.39 40.88L1354.03 41.72C1353.76 41.608 1353.47 41.512 1353.18 41.432C1352.88 41.352 1352.58 41.312 1352.26 41.312C1351.83 41.312 1351.5 41.384 1351.27 41.528C1351.04 41.664 1350.93 41.852 1350.93 42.092C1350.93 42.268 1350.98 42.42 1351.09 42.548C1351.19 42.668 1351.36 42.788 1351.6 42.908C1351.85 43.02 1352.18 43.156 1352.59 43.316C1353 43.468 1353.34 43.624 1353.63 43.784C1353.92 43.944 1354.14 44.14 1354.29 44.372C1354.44 44.596 1354.52 44.88 1354.52 45.224Z" fill="#484848"/>
<path d="M936.432 38.432C937.552 38.432 938.368 38.652 938.88 39.092C939.392 39.532 939.648 40.152 939.648 40.952C939.648 41.424 939.54 41.868 939.324 42.284C939.116 42.692 938.76 43.024 938.256 43.28C937.76 43.536 937.084 43.664 936.228 43.664H935.244V47H934.164V38.432H936.432ZM936.336 39.356H935.244V42.74H936.108C936.924 42.74 937.532 42.608 937.932 42.344C938.332 42.08 938.532 41.632 938.532 41C938.532 40.448 938.356 40.036 938.004 39.764C937.652 39.492 937.096 39.356 936.336 39.356ZM944.286 40.448C944.406 40.448 944.534 40.456 944.67 40.472C944.814 40.48 944.938 40.496 945.042 40.52L944.91 41.492C944.806 41.468 944.69 41.448 944.562 41.432C944.442 41.416 944.326 41.408 944.214 41.408C943.886 41.408 943.578 41.5 943.29 41.684C943.002 41.86 942.77 42.112 942.594 42.44C942.426 42.76 942.342 43.136 942.342 43.568V47H941.286V40.568H942.15L942.27 41.744H942.318C942.526 41.392 942.794 41.088 943.122 40.832C943.45 40.576 943.838 40.448 944.286 40.448ZM946.783 38.156C946.943 38.156 947.083 38.212 947.203 38.324C947.331 38.428 947.395 38.596 947.395 38.828C947.395 39.052 947.331 39.22 947.203 39.332C947.083 39.444 946.943 39.5 946.783 39.5C946.607 39.5 946.459 39.444 946.339 39.332C946.219 39.22 946.159 39.052 946.159 38.828C946.159 38.596 946.219 38.428 946.339 38.324C946.459 38.212 946.607 38.156 946.783 38.156ZM947.299 40.568V47H946.243V40.568H947.299ZM950.752 47L948.316 40.568H949.444L950.812 44.36C950.876 44.536 950.944 44.732 951.016 44.948C951.088 45.164 951.152 45.372 951.208 45.572C951.264 45.764 951.304 45.928 951.328 46.064H951.376C951.408 45.928 951.452 45.76 951.508 45.56C951.572 45.36 951.64 45.152 951.712 44.936C951.792 44.72 951.86 44.528 951.916 44.36L953.284 40.568H954.412L951.964 47H950.752ZM957.866 40.46C958.65 40.46 959.23 40.632 959.606 40.976C959.982 41.32 960.17 41.868 960.17 42.62V47H959.402L959.198 46.088H959.15C958.87 46.44 958.574 46.7 958.262 46.868C957.958 47.036 957.534 47.12 956.99 47.12C956.406 47.12 955.922 46.968 955.538 46.664C955.154 46.352 954.962 45.868 954.962 45.212C954.962 44.572 955.214 44.08 955.718 43.736C956.222 43.384 956.998 43.192 958.046 43.16L959.138 43.124V42.74C959.138 42.204 959.022 41.832 958.79 41.624C958.558 41.416 958.23 41.312 957.806 41.312C957.47 41.312 957.15 41.364 956.846 41.468C956.542 41.564 956.258 41.676 955.994 41.804L955.67 41.012C955.95 40.86 956.282 40.732 956.666 40.628C957.05 40.516 957.45 40.46 957.866 40.46ZM958.178 43.892C957.378 43.924 956.822 44.052 956.51 44.276C956.206 44.5 956.054 44.816 956.054 45.224C956.054 45.584 956.162 45.848 956.378 46.016C956.602 46.184 956.886 46.268 957.23 46.268C957.774 46.268 958.226 46.12 958.586 45.824C958.946 45.52 959.126 45.056 959.126 44.432V43.856L958.178 43.892ZM964.737 47.12C964.169 47.12 963.661 47.004 963.213 46.772C962.773 46.54 962.425 46.18 962.169 45.692C961.921 45.204 961.797 44.58 961.797 43.82C961.797 43.028 961.929 42.384 962.193 41.888C962.457 41.392 962.813 41.028 963.261 40.796C963.717 40.564 964.233 40.448 964.809 40.448C965.137 40.448 965.453 40.484 965.757 40.556C966.061 40.62 966.309 40.7 966.501 40.796L966.177 41.672C965.985 41.6 965.761 41.532 965.505 41.468C965.249 41.404 965.009 41.372 964.785 41.372C963.521 41.372 962.889 42.184 962.889 43.808C962.889 44.584 963.041 45.18 963.345 45.596C963.657 46.004 964.117 46.208 964.725 46.208C965.077 46.208 965.385 46.172 965.649 46.1C965.921 46.028 966.169 45.94 966.393 45.836V46.772C966.177 46.884 965.937 46.968 965.673 47.024C965.417 47.088 965.105 47.12 964.737 47.12ZM966.914 40.568H968.042L969.434 44.228C969.554 44.548 969.662 44.856 969.758 45.152C969.854 45.44 969.926 45.716 969.974 45.98H970.022C970.07 45.78 970.146 45.52 970.25 45.2C970.354 44.872 970.462 44.544 970.574 44.216L971.882 40.568H973.022L970.25 47.888C970.026 48.496 969.734 48.98 969.374 49.34C969.022 49.7 968.534 49.88 967.91 49.88C967.718 49.88 967.55 49.868 967.406 49.844C967.262 49.828 967.138 49.808 967.034 49.784V48.944C967.122 48.96 967.226 48.976 967.346 48.992C967.474 49.008 967.606 49.016 967.742 49.016C968.11 49.016 968.406 48.912 968.63 48.704C968.862 48.496 969.042 48.22 969.17 47.876L969.506 47.024L966.914 40.568ZM980.217 40.448C981.009 40.448 981.645 40.724 982.125 41.276C982.613 41.828 982.857 42.66 982.857 43.772C982.857 44.868 982.613 45.7 982.125 46.268C981.645 46.836 981.005 47.12 980.205 47.12C979.709 47.12 979.297 47.028 978.969 46.844C978.649 46.652 978.397 46.432 978.213 46.184H978.141C978.157 46.32 978.173 46.492 978.189 46.7C978.205 46.908 978.213 47.088 978.213 47.24V49.88H977.157V40.568H978.021L978.165 41.444H978.213C978.405 41.164 978.657 40.928 978.969 40.736C979.281 40.544 979.697 40.448 980.217 40.448ZM980.025 41.336C979.369 41.336 978.905 41.52 978.633 41.888C978.369 42.256 978.229 42.816 978.213 43.568V43.772C978.213 44.564 978.341 45.176 978.597 45.608C978.861 46.032 979.345 46.244 980.049 46.244C980.441 46.244 980.761 46.136 981.009 45.92C981.265 45.704 981.453 45.412 981.573 45.044C981.701 44.668 981.765 44.24 981.765 43.76C981.765 43.024 981.621 42.436 981.333 41.996C981.053 41.556 980.617 41.336 980.025 41.336ZM990.132 43.772C990.132 44.836 989.86 45.66 989.316 46.244C988.78 46.828 988.052 47.12 987.132 47.12C986.564 47.12 986.056 46.992 985.608 46.736C985.168 46.472 984.82 46.092 984.564 45.596C984.308 45.092 984.18 44.484 984.18 43.772C984.18 42.708 984.448 41.888 984.984 41.312C985.52 40.736 986.248 40.448 987.168 40.448C987.752 40.448 988.264 40.58 988.704 40.844C989.152 41.1 989.5 41.476 989.748 41.972C990.004 42.46 990.132 43.06 990.132 43.772ZM985.272 43.772C985.272 44.532 985.42 45.136 985.716 45.584C986.02 46.024 986.5 46.244 987.156 46.244C987.804 46.244 988.28 46.024 988.584 45.584C988.888 45.136 989.04 44.532 989.04 43.772C989.04 43.012 988.888 42.416 988.584 41.984C988.28 41.552 987.8 41.336 987.144 41.336C986.488 41.336 986.012 41.552 985.716 41.984C985.42 42.416 985.272 43.012 985.272 43.772ZM992.861 47H991.805V37.88H992.861V47ZM995.439 38.156C995.599 38.156 995.739 38.212 995.859 38.324C995.987 38.428 996.051 38.596 996.051 38.828C996.051 39.052 995.987 39.22 995.859 39.332C995.739 39.444 995.599 39.5 995.439 39.5C995.263 39.5 995.115 39.444 994.995 39.332C994.875 39.22 994.815 39.052 994.815 38.828C994.815 38.596 994.875 38.428 994.995 38.324C995.115 38.212 995.263 38.156 995.439 38.156ZM995.955 40.568V47H994.899V40.568H995.955ZM1000.57 47.12C1000 47.12 999.497 47.004 999.049 46.772C998.609 46.54 998.261 46.18 998.005 45.692C997.757 45.204 997.633 44.58 997.633 43.82C997.633 43.028 997.765 42.384 998.029 41.888C998.293 41.392 998.649 41.028 999.097 40.796C999.553 40.564 1000.07 40.448 1000.64 40.448C1000.97 40.448 1001.29 40.484 1001.59 40.556C1001.9 40.62 1002.14 40.7 1002.34 40.796L1002.01 41.672C1001.82 41.6 1001.6 41.532 1001.34 41.468C1001.08 41.404 1000.84 41.372 1000.62 41.372C999.357 41.372 998.725 42.184 998.725 43.808C998.725 44.584 998.877 45.18 999.181 45.596C999.493 46.004 999.953 46.208 1000.56 46.208C1000.91 46.208 1001.22 46.172 1001.48 46.1C1001.76 46.028 1002 45.94 1002.23 45.836V46.772C1002.01 46.884 1001.77 46.968 1001.51 47.024C1001.25 47.088 1000.94 47.12 1000.57 47.12ZM1002.75 40.568H1003.88L1005.27 44.228C1005.39 44.548 1005.5 44.856 1005.59 45.152C1005.69 45.44 1005.76 45.716 1005.81 45.98H1005.86C1005.91 45.78 1005.98 45.52 1006.09 45.2C1006.19 44.872 1006.3 44.544 1006.41 44.216L1007.72 40.568H1008.86L1006.09 47.888C1005.86 48.496 1005.57 48.98 1005.21 49.34C1004.86 49.7 1004.37 49.88 1003.75 49.88C1003.55 49.88 1003.39 49.868 1003.24 49.844C1003.1 49.828 1002.97 49.808 1002.87 49.784V48.944C1002.96 48.96 1003.06 48.976 1003.18 48.992C1003.31 49.008 1003.44 49.016 1003.58 49.016C1003.95 49.016 1004.24 48.912 1004.47 48.704C1004.7 48.496 1004.88 48.22 1005.01 47.876L1005.34 47.024L1002.75 40.568Z" fill="#484848"/>
<path d="M84 1L1356 1.00011L1356 -0.999889L84 -1L84 1Z" fill="#DFDFDF"/>
</g>
<defs>
<clipPath id="clip0_1406_3231">
<rect width="1440" height="84" fill="white"/>
</clipPath>
</defs>
</svg>
