<svg width="34" height="34" viewBox="0 0 34 34" fill="none" xmlns="http://www.w3.org/2000/svg">
<circle cx="17" cy="17" r="16.5" fill="#F5F5F5" stroke="#DFDFDF"/>
<path d="M27.46 11C26.69 11.35 25.86 11.58 25 11.69C25.88 11.16 26.56 10.32 26.88 9.31C26.05 9.81 25.13 10.16 24.16 10.36C23.37 9.5 22.26 9 21 9C18.65 9 16.73 10.92 16.73 13.29C16.73 13.63 16.77 13.96 16.84 14.27C13.28 14.09 10.11 12.38 8.00004 9.79C7.63004 10.42 7.42004 11.16 7.42004 11.94C7.42004 13.43 8.17004 14.75 9.33004 15.5C8.62004 15.5 7.96004 15.3 7.38004 15C7.38004 15 7.38004 15 7.38004 15.03C7.38004 17.11 8.86004 18.85 10.82 19.24C10.46 19.34 10.08 19.39 9.69004 19.39C9.42004 19.39 9.15004 19.36 8.89004 19.31C9.43004 21 11 22.26 12.89 22.29C11.43 23.45 9.58004 24.13 7.56004 24.13C7.22004 24.13 6.88004 24.11 6.54004 24.07C8.44004 25.29 10.7 26 13.12 26C21 26 25.33 19.46 25.33 13.79C25.33 13.6 25.33 13.42 25.32 13.23C26.16 12.63 26.88 11.87 27.46 11Z" fill="#484848"/>
</svg>
