<svg width="34" height="34" viewBox="0 0 34 34" fill="none" xmlns="http://www.w3.org/2000/svg">
<circle cx="17" cy="17" r="16.5" fill="#F5F5F5" stroke="#DFDFDF"/>
<path d="M15 20L20.19 17L15 14V20ZM26.56 12.17C26.69 12.64 26.78 13.27 26.84 14.07C26.91 14.87 26.94 15.56 26.94 16.16L27 17C27 19.19 26.84 20.8 26.56 21.83C26.31 22.73 25.73 23.31 24.83 23.56C24.36 23.69 23.5 23.78 22.18 23.84C20.88 23.91 19.69 23.94 18.59 23.94L17 24C12.81 24 10.2 23.84 9.17 23.56C8.27 23.31 7.69 22.73 7.44 21.83C7.31 21.36 7.22 20.73 7.16 19.93C7.09 19.13 7.06 18.44 7.06 17.84L7 17C7 14.81 7.16 13.2 7.44 12.17C7.69 11.27 8.27 10.69 9.17 10.44C9.64 10.31 10.5 10.22 11.82 10.16C13.12 10.09 14.31 10.06 15.41 10.06L17 10C21.19 10 23.8 10.16 24.83 10.44C25.73 10.69 26.31 11.27 26.56 12.17Z" fill="#484848"/>
</svg>
