<svg width="18" height="16" viewBox="0 0 18 16" fill="none" xmlns="http://www.w3.org/2000/svg">
<path d="M15.8329 1.42323C16.787 2.37723 17.2474 3.70203 17.252 5.03693C17.252 8.10262 15.0492 10.7628 13.1153 12.5384C11.8997 13.6545 10.5609 14.6777 9.13401 15.5113L8.62791 15.8252V13.4736C9.29781 13.0432 10.5374 12.1902 11.7626 11.0652C13.6412 9.34053 15.251 7.19502 15.252 5.03883C15.2483 4.18983 14.9876 3.40623 14.4187 2.83733C13.3151 1.73383 11.4774 1.73743 10.3742 2.83873L8.62251 4.58353L6.87641 2.83733C5.75991 1.72093 3.94971 1.72093 2.83331 2.83733C1.14961 4.52103 2.30201 7.25093 3.47391 8.85283C3.82261 9.32963 4.21251 9.78543 4.62111 10.2145L4.62791 7.82243L6.62791 7.82812L6.61091 13.8281L0.610912 13.811L0.616512 11.811L3.39081 11.8189C2.85211 11.2717 2.32791 10.6738 1.85971 10.0337C0.822212 8.61543 0.000311753 6.90883 1.17528e-05 5.03803C-0.00248825 3.78683 0.393612 2.44863 1.41901 1.42313C3.31661 -0.474375 6.39301 -0.474375 8.29061 1.42313L8.62531 1.75783L8.96131 1.42313C10.8341 -0.449075 13.9602 -0.449575 15.8329 1.42313V1.42323Z" fill="#111111"/>
</svg>
