<svg width="93" height="40" viewBox="0 0 93 40" fill="none" xmlns="http://www.w3.org/2000/svg">
<path d="M0 20C0 8.95431 8.95431 0 20 0H73C84.0457 0 93 8.95431 93 20C93 31.0457 84.0457 40 73 40H20C8.9543 40 0 31.0457 0 20Z" fill="#111111"/>
<path d="M31.6833 16.432L28.7193 25H27.0753L24.1113 16.432H25.6833L27.4113 21.676C27.4593 21.82 27.5153 22.008 27.5793 22.24C27.6433 22.464 27.7033 22.696 27.7593 22.936C27.8233 23.176 27.8713 23.384 27.9033 23.56C27.9273 23.384 27.9673 23.176 28.0233 22.936C28.0793 22.696 28.1393 22.464 28.2033 22.24C28.2673 22.008 28.3273 21.82 28.3833 21.676L30.1113 16.432H31.6833ZM33.4096 15.988C33.6416 15.988 33.8376 16.048 33.9976 16.168C34.1656 16.28 34.2496 16.484 34.2496 16.78C34.2496 17.076 34.1656 17.284 33.9976 17.404C33.8376 17.524 33.6416 17.584 33.4096 17.584C33.1776 17.584 32.9776 17.524 32.8096 17.404C32.6496 17.284 32.5696 17.076 32.5696 16.78C32.5696 16.484 32.6496 16.28 32.8096 16.168C32.9776 16.048 33.1776 15.988 33.4096 15.988ZM34.1656 18.496V25H32.6536V18.496H34.1656ZM38.715 18.376C39.587 18.376 40.275 18.636 40.779 19.156C41.291 19.676 41.547 20.4 41.547 21.328V22.096H37.251C37.267 22.688 37.431 23.148 37.743 23.476C38.055 23.796 38.487 23.956 39.039 23.956C39.455 23.956 39.831 23.916 40.167 23.836C40.503 23.748 40.847 23.624 41.199 23.464V24.676C40.879 24.828 40.547 24.94 40.203 25.012C39.859 25.084 39.447 25.12 38.967 25.12C38.335 25.12 37.771 25 37.275 24.76C36.787 24.512 36.403 24.14 36.123 23.644C35.851 23.148 35.715 22.532 35.715 21.796C35.715 20.684 35.991 19.836 36.543 19.252C37.095 18.668 37.819 18.376 38.715 18.376ZM38.715 19.492C38.307 19.492 37.975 19.624 37.719 19.888C37.471 20.144 37.327 20.528 37.287 21.04H40.083C40.075 20.592 39.959 20.224 39.735 19.936C39.519 19.64 39.179 19.492 38.715 19.492ZM47.4452 22.204C47.4052 22.052 47.3572 21.864 47.3012 21.64C47.2452 21.408 47.1852 21.168 47.1212 20.92C47.0652 20.672 47.0132 20.444 46.9652 20.236C46.9172 20.028 46.8812 19.868 46.8572 19.756H46.8092C46.7852 19.868 46.7492 20.028 46.7012 20.236C46.6532 20.444 46.6012 20.676 46.5452 20.932C46.4892 21.18 46.4292 21.42 46.3652 21.652C46.3092 21.876 46.2612 22.064 46.2212 22.216L45.4652 25H43.8092L41.9852 18.484H43.5092L44.3132 21.592C44.3692 21.808 44.4212 22.048 44.4692 22.312C44.5252 22.568 44.5692 22.82 44.6012 23.068C44.6412 23.308 44.6732 23.504 44.6972 23.656H44.7452C44.7612 23.512 44.7892 23.316 44.8292 23.068C44.8772 22.82 44.9252 22.58 44.9732 22.348C45.0212 22.108 45.0612 21.928 45.0932 21.808L46.0292 18.484H47.6852L48.5852 21.808C48.6172 21.952 48.6572 22.14 48.7052 22.372C48.7612 22.604 48.8092 22.84 48.8492 23.08C48.8892 23.312 48.9132 23.5 48.9212 23.644H48.9692C48.9852 23.516 49.0132 23.332 49.0532 23.092C49.0932 22.852 49.1412 22.596 49.1972 22.324C49.2532 22.052 49.3132 21.808 49.3772 21.592L50.1932 18.484H51.6932L49.8452 25H48.1652L47.4452 22.204ZM58.5074 18.376C59.3474 18.376 59.9834 18.56 60.4154 18.928C60.8554 19.296 61.0754 19.864 61.0754 20.632V25H60.0074L59.7074 24.1H59.6594C59.3794 24.452 59.0834 24.712 58.7714 24.88C58.4594 25.04 58.0354 25.12 57.4994 25.12C56.9154 25.12 56.4314 24.956 56.0474 24.628C55.6634 24.3 55.4714 23.792 55.4714 23.104C55.4714 22.432 55.7154 21.928 56.2034 21.592C56.6994 21.256 57.4474 21.068 58.4474 21.028L59.5754 20.992V20.668C59.5754 20.26 59.4754 19.968 59.2754 19.792C59.0754 19.608 58.7954 19.516 58.4354 19.516C58.1074 19.516 57.7914 19.564 57.4874 19.66C57.1914 19.756 56.8954 19.868 56.5994 19.996L56.1194 18.94C56.4394 18.772 56.8034 18.636 57.2114 18.532C57.6274 18.428 58.0594 18.376 58.5074 18.376ZM58.7834 21.952C58.1194 21.976 57.6594 22.092 57.4034 22.3C57.1474 22.5 57.0194 22.772 57.0194 23.116C57.0194 23.428 57.1074 23.652 57.2834 23.788C57.4674 23.916 57.7074 23.98 58.0034 23.98C58.4434 23.98 58.8154 23.856 59.1194 23.608C59.4234 23.352 59.5754 22.976 59.5754 22.48V21.928L58.7834 21.952ZM64.482 25H62.97V15.88H64.482V25ZM67.9274 25H66.4154V15.88H67.9274V25Z" fill="white"/>
</svg>
