<svg width="128" height="40" viewBox="0 0 128 40" fill="none" xmlns="http://www.w3.org/2000/svg">
<path d="M0 20C0 8.95431 8.95431 0 20 0H108C119.046 0 128 8.95431 128 20C128 31.0457 119.046 40 108 40H20C8.95431 40 0 31.0457 0 20Z" fill="#111111"/>
<path d="M25.3894 25V16.432H26.9254V23.704H30.5014V25H25.3894ZM37.6511 21.736C37.6511 22.816 37.3711 23.652 36.8111 24.244C36.2511 24.828 35.4911 25.12 34.5311 25.12C33.9391 25.12 33.4111 24.988 32.9471 24.724C32.4831 24.46 32.1191 24.076 31.8551 23.572C31.5911 23.068 31.4591 22.456 31.4591 21.736C31.4591 20.656 31.7351 19.828 32.2871 19.252C32.8471 18.668 33.6071 18.376 34.5671 18.376C35.1671 18.376 35.6991 18.508 36.1631 18.772C36.6271 19.028 36.9911 19.408 37.2551 19.912C37.5191 20.408 37.6511 21.016 37.6511 21.736ZM33.0071 21.736C33.0071 22.424 33.1271 22.956 33.3671 23.332C33.6151 23.708 34.0111 23.896 34.5551 23.896C35.0991 23.896 35.4911 23.708 35.7311 23.332C35.9791 22.956 36.1031 22.424 36.1031 21.736C36.1031 21.048 35.9791 20.52 35.7311 20.152C35.4911 19.784 35.0951 19.6 34.5431 19.6C34.0071 19.6 33.6151 19.784 33.3671 20.152C33.1271 20.52 33.0071 21.048 33.0071 21.736ZM41.8062 18.376C42.6462 18.376 43.2822 18.56 43.7142 18.928C44.1542 19.296 44.3742 19.864 44.3742 20.632V25H43.3062L43.0062 24.1H42.9582C42.6782 24.452 42.3822 24.712 42.0702 24.88C41.7582 25.04 41.3342 25.12 40.7982 25.12C40.2142 25.12 39.7302 24.956 39.3462 24.628C38.9622 24.3 38.7702 23.792 38.7702 23.104C38.7702 22.432 39.0142 21.928 39.5022 21.592C39.9982 21.256 40.7462 21.068 41.7462 21.028L42.8742 20.992V20.668C42.8742 20.26 42.7742 19.968 42.5742 19.792C42.3742 19.608 42.0942 19.516 41.7342 19.516C41.4062 19.516 41.0902 19.564 40.7862 19.66C40.4902 19.756 40.1942 19.868 39.8982 19.996L39.4182 18.94C39.7382 18.772 40.1022 18.636 40.5102 18.532C40.9262 18.428 41.3582 18.376 41.8062 18.376ZM42.0822 21.952C41.4182 21.976 40.9582 22.092 40.7022 22.3C40.4462 22.5 40.3182 22.772 40.3182 23.116C40.3182 23.428 40.4062 23.652 40.5822 23.788C40.7662 23.916 41.0062 23.98 41.3022 23.98C41.7422 23.98 42.1142 23.856 42.4182 23.608C42.7222 23.352 42.8742 22.976 42.8742 22.48V21.928L42.0822 21.952ZM48.4169 25.12C47.6569 25.12 47.0449 24.836 46.5809 24.268C46.1169 23.7 45.8849 22.864 45.8849 21.76C45.8849 20.64 46.1209 19.796 46.5929 19.228C47.0649 18.66 47.6849 18.376 48.4529 18.376C48.9329 18.376 49.3249 18.468 49.6289 18.652C49.9409 18.836 50.1889 19.06 50.3729 19.324H50.4449C50.4209 19.212 50.3969 19.04 50.3729 18.808C50.3489 18.576 50.3369 18.36 50.3369 18.16V15.88H51.8489V25H50.6729L50.3969 24.148H50.3369C50.1529 24.42 49.9089 24.652 49.6049 24.844C49.3009 25.028 48.9049 25.12 48.4169 25.12ZM48.8729 23.896C49.4329 23.896 49.8249 23.736 50.0489 23.416C50.2809 23.096 50.4009 22.612 50.4089 21.964V21.772C50.4089 21.076 50.2969 20.544 50.0729 20.176C49.8569 19.8 49.4489 19.612 48.8489 19.612C48.3849 19.612 48.0289 19.804 47.7809 20.188C47.5409 20.564 47.4209 21.096 47.4209 21.784C47.4209 22.472 47.5449 22.996 47.7929 23.356C48.0409 23.716 48.4009 23.896 48.8729 23.896ZM60.6178 25H59.1058V19.66C59.1058 19.404 59.1098 19.132 59.1178 18.844C59.1258 18.556 59.1378 18.288 59.1538 18.04C59.0738 18.12 58.9738 18.216 58.8538 18.328C58.7338 18.432 58.6098 18.54 58.4818 18.652L57.5218 19.42L56.7658 18.484L59.3578 16.432H60.6178V25ZM69.177 25H63.309V23.884L65.493 21.676C65.925 21.236 66.277 20.86 66.549 20.548C66.829 20.236 67.033 19.944 67.161 19.672C67.297 19.392 67.365 19.092 67.365 18.772C67.365 18.38 67.253 18.088 67.029 17.896C66.805 17.696 66.509 17.596 66.141 17.596C65.781 17.596 65.445 17.672 65.133 17.824C64.821 17.968 64.497 18.176 64.161 18.448L63.333 17.452C63.685 17.148 64.085 16.884 64.533 16.66C64.981 16.428 65.545 16.312 66.225 16.312C66.777 16.312 67.253 16.412 67.653 16.612C68.053 16.804 68.357 17.072 68.565 17.416C68.781 17.76 68.889 18.16 68.889 18.616C68.889 19.08 68.797 19.508 68.613 19.9C68.429 20.284 68.161 20.672 67.809 21.064C67.465 21.448 67.053 21.864 66.573 22.312L65.217 23.62V23.692H69.177V25ZM81.2013 18.376C81.9373 18.376 82.4893 18.564 82.8573 18.94C83.2333 19.316 83.4213 19.924 83.4213 20.764V25H81.9093V21.052C81.9093 20.084 81.5413 19.6 80.8053 19.6C80.2773 19.6 79.9013 19.772 79.6773 20.116C79.4533 20.46 79.3413 20.96 79.3413 21.616V25H77.8293V21.052C77.8293 20.084 77.4573 19.6 76.7133 19.6C76.1613 19.6 75.7813 19.792 75.5733 20.176C75.3653 20.56 75.2613 21.108 75.2613 21.82V25H73.7493V18.496H74.9133L75.1293 19.348H75.2133C75.4053 19.012 75.6733 18.768 76.0173 18.616C76.3693 18.456 76.7333 18.376 77.1093 18.376C77.5973 18.376 78.0053 18.46 78.3333 18.628C78.6693 18.788 78.9253 19.04 79.1013 19.384H79.2213C79.4213 19.032 79.7013 18.776 80.0613 18.616C80.4213 18.456 80.8013 18.376 81.2013 18.376ZM91.1237 21.736C91.1237 22.816 90.8438 23.652 90.2838 24.244C89.7238 24.828 88.9638 25.12 88.0038 25.12C87.4118 25.12 86.8838 24.988 86.4198 24.724C85.9558 24.46 85.5918 24.076 85.3278 23.572C85.0638 23.068 84.9318 22.456 84.9318 21.736C84.9318 20.656 85.2078 19.828 85.7598 19.252C86.3198 18.668 87.0798 18.376 88.0398 18.376C88.6398 18.376 89.1718 18.508 89.6358 18.772C90.0998 19.028 90.4638 19.408 90.7278 19.912C90.9918 20.408 91.1237 21.016 91.1237 21.736ZM86.4798 21.736C86.4798 22.424 86.5998 22.956 86.8398 23.332C87.0878 23.708 87.4838 23.896 88.0278 23.896C88.5718 23.896 88.9638 23.708 89.2038 23.332C89.4518 22.956 89.5758 22.424 89.5758 21.736C89.5758 21.048 89.4518 20.52 89.2038 20.152C88.9638 19.784 88.5678 19.6 88.0158 19.6C87.4798 19.6 87.0878 19.784 86.8398 20.152C86.5998 20.52 86.4798 21.048 86.4798 21.736ZM96.0948 18.376C96.1988 18.376 96.3108 18.38 96.4308 18.388C96.5588 18.396 96.6668 18.412 96.7548 18.436L96.6228 19.84C96.5428 19.824 96.4468 19.812 96.3348 19.804C96.2228 19.788 96.1228 19.78 96.0348 19.78C95.7148 19.78 95.4148 19.848 95.1348 19.984C94.8548 20.112 94.6268 20.316 94.4508 20.596C94.2828 20.868 94.1988 21.212 94.1988 21.628V25H92.6868V18.496H93.8508L94.0668 19.624H94.1388C94.3308 19.28 94.5948 18.988 94.9308 18.748C95.2668 18.5 95.6548 18.376 96.0948 18.376ZM100.342 18.376C101.214 18.376 101.902 18.636 102.406 19.156C102.918 19.676 103.174 20.4 103.174 21.328V22.096H98.8779C98.8939 22.688 99.0579 23.148 99.3699 23.476C99.6819 23.796 100.114 23.956 100.666 23.956C101.082 23.956 101.458 23.916 101.794 23.836C102.13 23.748 102.474 23.624 102.826 23.464V24.676C102.506 24.828 102.174 24.94 101.83 25.012C101.486 25.084 101.074 25.12 100.594 25.12C99.9619 25.12 99.3979 25 98.9019 24.76C98.4139 24.512 98.0299 24.14 97.7499 23.644C97.4779 23.148 97.3419 22.532 97.3419 21.796C97.3419 20.684 97.6179 19.836 98.1699 19.252C98.7219 18.668 99.4459 18.376 100.342 18.376ZM100.342 19.492C99.9339 19.492 99.6019 19.624 99.3459 19.888C99.0979 20.144 98.9539 20.528 98.9139 21.04H101.71C101.702 20.592 101.586 20.224 101.362 19.936C101.146 19.64 100.806 19.492 100.342 19.492Z" fill="white"/>
</svg>
